<?xml version="1.0" encoding="utf-8"?>
<svg width="83px" height="29px" viewBox="0 0 83 29" version="1.1" xmlns:xlink="http://www.w3.org/1999/xlink" xmlns="http://www.w3.org/2000/svg">
  <desc>Created with Lunacy</desc>
  <g id="beeit-logo" transform="translate(1 1)">
    <path d="M7.72213 2.20633C8.40841 1.16944 7.72213 0.365842 6.76623 0.0806953C5.83484 -0.178529 4.26619 0.23623 3.40834 0.625066C2.01126 1.27313 0.0504446 2.69886 0.00142428 3.70983C-0.0721062 4.61712 2.72205 5.21333 3.60442 4.92818" transform="translate(1 6)" id="Shape" fill="#C08728" stroke="none" />
    <path d="M1.19512 5.44965C0.971037 5.35971 0.77185 5.24728 0.62246 5.13485C0.0497968 4.70761 0 4.23541 0 3.98806C0.0995936 2.45901 2.93801 1.01991 4.03354 0.615161C4.85519 0.300357 6.72257 -0.216822 8.04218 0.0979825C8.96342 0.322843 9.63568 0.817535 9.88466 1.44714C10.1087 2.00929 10.0092 2.66139 9.56098 3.22354C9.2622 3.6058 8.68954 3.71823 8.24137 3.4484C7.81809 3.17857 7.7185 2.66139 7.99238 2.25664C8.09198 2.12172 8.11687 2.03178 8.09198 2.03178C8.06708 1.98681 7.89279 1.8294 7.51931 1.73946C6.92175 1.60454 5.55234 1.85189 4.73069 2.18918C3.46088 2.68387 2.29065 3.49337 1.94207 3.94309C2.51474 4.21292 3.88415 4.4153 4.30742 4.30287C4.80539 4.16795 5.32826 4.4153 5.47765 4.86502C5.62704 5.31474 5.35315 5.78694 4.85519 5.92186C4.03354 6.12423 2.31555 5.92186 1.19512 5.44965Z" transform="translate(0 6)" id="Shape" fill="#333334" stroke="none" />
    <path d="M0.712445 3C0.630605 3 0.548766 2.97366 0.494207 2.94732C0.11229 2.81562 -0.0786686 2.42051 0.0304505 2.05175C0.275968 1.41958 0.767004 0.813752 1.42172 0.418647C2.34923 -0.160841 3.41314 -0.1345 4.61345 0.471327C4.96809 0.65571 5.10449 1.07716 4.91353 1.44592C4.72257 1.78834 4.28609 1.92005 3.90418 1.73566C3.00395 1.26154 2.54019 1.44592 2.21283 1.6303C1.83092 1.86737 1.55812 2.20979 1.42172 2.52587C1.3126 2.81562 1.01252 3 0.712445 3Z" transform="translate(19 2)" id="Shape" fill="#333334" stroke="none" />
    <path d="M0.673712 5C0.623716 5 0.573719 5 0.523722 4.97176C0.148747 4.88705 -0.0762375 4.46347 0.0237558 4.06813C0.473726 1.86552 2.22361 0.171213 4.27347 0.0017816C4.64845 -0.0264569 4.97342 0.284167 4.99842 0.707745C5.02342 1.13132 4.74844 1.49842 4.37346 1.52666C2.92356 1.66785 1.64865 2.88211 1.32367 4.43523C1.27367 4.74585 0.973692 5 0.673712 5Z" transform="translate(17 0)" id="Shape" fill="#333334" stroke="none" />
    <path d="M5.99316 1.38366C6.08971 0.133921 5.14838 -0.172139 4.18291 0.0829109C3.28986 0.363466 2.1313 1.53669 1.57616 2.30184C0.683103 3.55159 -0.330635 5.82153 0.103824 6.6887C0.465873 7.50486 3.1209 6.53567 3.74845 5.84703" transform="translate(2 8)" id="Shape" fill="#C08728" stroke="none" />
    <path d="M2.02793 8.98314C1.78066 9.00881 1.55812 9.00881 1.36031 8.95748C0.643233 8.82914 0.321785 8.39282 0.198151 8.13616C-0.568378 6.57053 1.08832 3.69592 1.78066 2.72061C2.29993 2.00196 3.63517 0.513322 4.94569 0.128331C5.86058 -0.128331 6.70129 0 7.29473 0.513322C7.814 0.949646 8.06126 1.64263 7.98708 2.43828C7.93763 2.97727 7.49255 3.36226 6.97329 3.3366C6.45402 3.28526 6.08312 2.82327 6.10785 2.28428C6.13258 2.07896 6.08312 2.00196 6.08312 2.00196C6.03367 1.95062 5.81113 1.89929 5.44023 2.00196C4.84678 2.18162 3.83299 3.13127 3.289 3.87558C2.47301 5.00489 1.92903 6.41653 1.85485 7.05818C2.49774 7.03252 3.78353 6.51919 4.08025 6.18553C4.42643 5.80054 5.01987 5.77488 5.4155 6.1342C5.7864 6.49353 5.81113 7.10951 5.46495 7.52017C4.84678 8.16183 3.23954 8.88048 2.02793 8.98314Z" transform="translate(2 7)" id="Shape" fill="#333334" stroke="none" />
    <path d="M11.5729 15.561C10.2688 18.662 2.66572 21 2.66572 21C2.66572 21 -1.02509 13.9613 0.278997 10.8357L3.23164 3.77244C4.53573 0.646873 8.12811 -0.829774 11.2284 0.474598L11.2284 0.474598C14.3533 1.77897 15.8296 5.37215 14.5255 8.47311L11.5729 15.561Z" transform="translate(6 3)" id="Shape" fill="#FEC110" stroke="none" />
    <path d="M3.18591 22.9176C3.21418 22.9703 3.22935 22.9985 3.22935 23C3.25424 22.9752 11.9666 20.6146 13.485 16.9868L16.4472 9.85551C17.9657 6.22773 16.2481 2.0533 12.6138 0.537585C9.0044 -0.953284 4.82247 0.761215 3.30403 4.38899L0.316936 11.5203C-1.11264 14.9124 2.73112 22.0707 3.18591 22.9176ZM5.02161 5.10958C6.14177 2.42602 9.22843 1.15878 11.8919 2.27693C14.5803 3.39508 15.8498 6.47621 14.7297 9.11008L11.7426 16.2414C10.6224 18.925 4.22505 20.5898 4.22505 20.5898C4.22505 20.5898 0.914355 14.8748 2.03451 12.2161L5.02161 5.10958Z" transform="translate(6 2)" id="Shape" fill="#333334" fill-rule="evenodd" stroke="#333334" stroke-width="2" />
    <path d="M1.9261 1.38506C1.72251 1.88338 1.13438 2.13254 0.614114 1.92868C0.116466 1.72482 -0.132359 1.1359 0.0712247 0.614938C0.274808 0.116622 0.862938 -0.132536 1.36059 0.0713202C1.90348 0.297828 2.12968 0.886746 1.9261 1.38506Z" transform="translate(16 9)" id="Shape" fill="#333334" stroke="none" />
    <path d="M10 4.37383C8.32432 4.06542 6.59459 3.53271 4.86486 2.7757C3.08108 1.99065 1.45946 1.06542 0 0L0.189189 2.66355C1.37838 3.42056 2.7027 4.1215 4.08108 4.71028C5.2973 5.24299 6.48649 5.66355 7.7027 6L10 4.37383Z" transform="translate(6 17)" id="Shape" fill="#333334" stroke="none" />
    <path d="M5.41842 4.42661C3.55168 3.66957 1.85917 2.74159 0.390673 1.66708C-0.0324544 1.37403 -0.132014 0.787939 0.191554 0.372788C0.490232 -0.0423621 1.08759 -0.115624 1.51071 0.177423C2.87965 1.15425 4.44771 2.00897 6.16511 2.71717C7.85762 3.42537 9.57502 3.91378 11.2177 4.1824C11.7404 4.25567 12.064 4.74408 11.9893 5.23249C11.9147 5.74532 11.4169 6.06279 10.9191 5.98953C9.10211 5.7209 7.26026 5.18365 5.41842 4.42661Z" transform="translate(6 14)" id="Shape" fill="#333334" stroke="none" />
    <path d="M5.41253 4.42937C3.54412 3.67365 1.8501 2.74729 0.380291 1.67466C-0.0432146 1.38213 -0.117951 0.797061 0.180994 0.382637C0.479939 -0.0317869 1.07783 -0.129298 1.50133 0.187614C2.8715 1.16273 4.44096 2.01595 6.15989 2.72291C7.85392 3.42987 9.57285 3.91743 11.217 4.18559C11.7402 4.25872 12.0641 4.74628 11.9893 5.23383C11.9146 5.74577 11.4163 6.06268 10.9181 5.98955C9.07461 5.72139 7.23111 5.18508 5.41253 4.42937Z" transform="translate(7 10)" id="Shape" fill="#333334" stroke="none" />
    <path d="M22.8879 2.35045C22.3408 1.59243 21.545 1.03002 20.5005 0.638788C19.456 0.247552 18.2374 0.0274811 16.8199 0.00302881C15.4272 -0.0214235 13.8604 0.100838 12.1693 0.418718C10.4533 0.712145 8.68763 1.17674 6.82245 1.78805C4.98213 2.39935 2.37086 3.47525 0.480804 4.67342C0.0580281 4.91794 -0.0663178 5.23582 0.0331589 5.6026C0.157505 5.96939 0.406197 6.28727 0.779234 6.58069C1.15227 6.87412 1.59992 7.06974 2.0973 7.192C2.61955 7.31426 3.04233 7.26536 3.41537 6.99638C5.05673 5.94493 6.42454 5.26027 7.94156 4.67342C9.45858 4.08656 10.8761 3.64642 12.2439 3.30409C13.5869 2.98621 14.8055 2.76614 15.8997 2.69278C16.9691 2.59497 17.8892 2.64388 18.6602 2.81504C19.4311 2.98621 20.0031 3.30409 20.3513 3.74423C20.7989 4.33108 20.9233 4.96684 20.6994 5.70041C20.4756 6.43398 20.0529 7.1431 19.3814 7.85221C18.7348 8.53688 17.9141 9.17264 16.9939 9.75949C16.0489 10.3463 15.079 10.762 14.0842 11.031C13.2138 10.8598 9.58292 12.0091 9.06067 12.058C7.61826 12.8649 7.61826 13.0116 6.79758 14.4543C7.07114 14.8211 7.39444 15.0901 7.79234 15.2613C8.3892 15.5058 9.0358 15.5791 9.78188 15.5302C10.528 15.4569 11.3238 15.2613 12.1693 14.9434C13.0149 14.6255 13.8853 14.2587 14.7308 13.8186C15.5018 13.9897 16.1235 14.381 16.6209 15.0167C17.1183 15.6525 17.3172 16.3616 17.2426 17.1441C17.168 17.9266 16.7204 18.7335 15.9494 19.5649C14.6314 20.9831 12.6916 21.7411 10.8015 22.0101C9.11041 22.2546 7.31983 22.3524 5.62873 22.0345C4.78317 21.8634 3.96249 21.5944 3.19155 21.2276C2.52008 20.9097 1.69939 20.0539 0.92845 20.0539C0.530543 20.0539 0.256982 20.2251 0.107766 20.5429C-0.339879 21.5699 0.704627 22.6703 1.4507 23.1838C2.44547 23.8685 3.58945 24.3331 4.73343 24.6265C6.39967 25.0422 8.16538 25.0911 9.88136 24.871C12.4678 24.5531 15.079 23.844 17.2178 22.328C18.0136 21.7656 18.8094 21.032 19.4311 20.2495C20.2518 19.1736 20.6746 18.1466 20.6994 17.1441C20.7243 16.1415 20.4259 15.2123 19.8539 14.3565C19.257 13.5007 18.5607 12.8405 17.74 12.327C19.3068 11.569 20.5751 10.7865 21.5201 9.95511C22.4652 9.12373 23.1366 8.29235 23.5345 7.41207C23.9324 6.55624 24.0817 5.70041 23.9573 4.82013C23.833 4.0132 23.4848 3.15737 22.8879 2.35045Z" transform="translate(29 2)" id="Shape" fill="#333334" stroke="none" />
    <path d="M3.48079 9.8132C3.9611 10.1881 4.49197 10.313 5.12396 10.288C7.70247 10.1631 10.4579 9.03849 11.7472 8.26378C11.823 8.98851 11.823 9.68824 12 10.413C10.5591 11.3126 8.35974 12.3872 5.73067 12.887C4.61837 13.087 3.65774 13.012 2.8488 12.7371C2.03985 12.4622 1.40786 12.0124 0.927549 11.3876C0.447237 10.7628 0.169162 10.0381 0.0427641 9.16344C-0.0583541 8.28877 0.0174846 7.36412 0.29556 6.36449C0.725312 4.81507 1.30674 3.56554 2.09041 2.6159C2.87408 1.66625 3.68302 0.966513 4.54253 0.541672Q5.83179 -0.0955892 7.0452 0.0168687C7.85415 0.06685 8.48614 0.341747 8.99173 0.816569C9.3962 1.19143 9.67428 1.64126 9.85124 2.21604C10.0535 2.79083 10.0788 3.3906 9.97763 4.01537C9.87652 4.64014 9.62372 5.28989 9.21925 5.91466C8.81477 6.56442 8.20807 7.11421 7.4244 7.61402C6.99465 7.91391 6.56489 8.06385 6.16042 8.13883C5.73067 8.18881 5.35147 8.18881 4.99756 8.11384C4.64365 8.03886 4.31501 7.91391 4.03694 7.71398C3.75886 7.51406 3.53134 7.31414 3.35439 7.08922C3.15215 7.68899 3.05103 8.23879 3.05103 8.71361C3.05103 9.18843 3.17743 9.56329 3.48079 9.8132ZM5.90762 3.11571C5.60427 3.3906 5.32619 3.69049 5.04812 4.06535C4.74476 4.44021 4.49197 4.84006 4.26445 5.23991C4.66893 5.61477 5.12396 5.76472 5.62955 5.66475C6.13514 5.58978 6.56489 5.36487 6.94409 5.015C7.32328 4.66513 7.57608 4.26528 7.70247 3.84044C7.82887 3.4156 7.72775 3.04074 7.37384 2.74085C7.19688 2.56591 6.96937 2.54092 6.71657 2.6159C6.46377 2.69087 6.1857 2.8658 5.90762 3.11571Z" transform="translate(52 10)" id="Shape" fill="#333334" fill-rule="evenodd" stroke="none" />
    <path d="M15.686 6.32083C16.1481 6.37086 16.4818 6.49593 16.7129 6.74609C16.9439 6.99625 17.021 7.29644 16.9953 7.64665C16.9183 8.02189 16.6359 8.37211 16.0967 8.72233C13.4011 10.4234 11.0136 11.5991 8.9084 12.2245C7.5991 12.6248 6.39249 12.8499 5.33991 12.95C5.08318 12.975 4.8778 13 4.64675 13L4.49271 13C3.90224 13 3.38879 12.8999 2.92668 12.7498C2.10516 12.4747 1.46334 12.0244 0.97556 11.399C0.718834 11.0738 0.513453 10.6986 0.359417 10.2983C0.282399 10.3233 0.205381 10.3734 0.128363 10.4234C0.128363 10.4234 0.0513453 10.0231 0.0513453 9.97311C0.0385089 9.83552 0.0449271 9.72921 0.0513453 9.62289C0.0577634 9.51657 0.0641816 9.41026 0.0513453 9.27267C0.0256726 8.9975 0 8.57223 0 8.29706C0 7.64665 0.128363 6.99625 0.308072 6.37086C0.744506 4.81989 1.33498 3.56911 2.13083 2.61851C2.92668 1.66792 3.7482 0.96748 4.62107 0.542214Q5.93038 -0.0956848 7.16266 0.0168856C7.98419 0.0669168 8.626 0.342089 9.13946 0.817386C9.55022 1.19262 9.83262 1.6429 10.0123 2.21826C10.2177 2.79362 10.2434 3.394 10.1407 4.01939C10.038 4.64478 9.78127 5.29518 9.37051 5.92058C8.95975 6.57098 8.34361 7.12133 7.54775 7.62164C7.11132 7.92183 6.67488 8.09694 6.26412 8.14697C5.82769 8.197 5.4426 8.197 5.08318 8.12195C4.72376 8.0469 4.39002 7.92183 4.10762 7.7217C3.82522 7.52158 3.59417 7.32145 3.41446 7.09631C3.20908 7.69668 3.10639 8.24703 3.10639 8.72233C3.10639 9.19762 3.23475 9.57286 3.54282 9.82301C3.92791 10.1482 4.36435 10.2983 4.85213 10.3233C5.75067 10.2983 6.72623 10.1232 7.80448 9.798C8.93408 9.44778 10.0893 9.02251 11.2703 8.47217Q13.0417 7.68418 14.351 6.74609C14.7874 6.42089 15.2495 6.27079 15.686 6.32083ZM5.95605 3.11882C5.64798 3.394 5.36558 3.69418 5.08318 4.06942C4.80078 4.44465 4.51838 4.8449 4.28733 5.24515C4.69809 5.62039 5.1602 5.77048 5.67365 5.67042C6.1871 5.59537 6.62354 5.37023 7.00863 5.02001C7.39372 4.66979 7.65044 4.26954 7.77881 3.84428C7.90717 3.41901 7.80448 3.04378 7.44506 2.74359C7.26536 2.56848 7.0343 2.54346 6.77758 2.61851C6.52085 2.69356 6.23845 2.86867 5.95605 3.11882Z" transform="translate(63 10)" id="Shape" fill="#333334" fill-rule="evenodd" stroke="none" />
    <path d="M1.53322 20C1.2764 20 1.01958 19.9237 0.762758 19.7712C0.0389872 19.3135 -0.217835 18.2966 0.202419 17.5084L0.319156 17.305C2.44377 13.2879 4.61508 9.14374 6.03928 4.79615C6.43618 3.6012 6.7397 2.40625 6.99652 1.28757C7.1833 0.39771 8.00046 -0.161629 8.81762 0.0417666C9.63478 0.245163 10.1484 1.13502 9.96165 2.02488C9.70482 3.27068 9.35461 4.59275 8.91101 5.8894C7.41678 10.5421 5.15207 14.8134 2.98076 18.9576L2.86403 19.161C2.58386 19.6949 2.07021 20 1.53322 20Z" transform="translate(34 2)" id="Shape" fill="#333334" stroke="none" />
    <path d="M6.5095 0.541003C7.20928 0.835302 7.83666 1.7182 7.95731 2.32943C8.5123 5.29505 3.51738 7.19667 1.05612 5.13658C-0.17451 4.11786 -0.34342 2.32943 0.62178 1.1296C1.80415 -0.341891 4.8204 -0.183423 6.48537 0.518365C6.48537 0.541003 6.5095 0.541003 6.5095 0.541003ZM5.56843 2.17096L6.07516 2.17096C6.29233 2.17096 6.46124 2.01249 6.48537 1.76347C6.48537 1.53709 6.29233 1.35598 6.07516 1.35598L4.16889 1.35598C3.95172 1.35598 3.78281 1.53709 3.78281 1.76347C3.78281 1.98986 3.95172 2.17096 4.16889 2.17096L4.69975 2.17096L4.69975 4.16313C4.69975 4.38952 4.89279 4.54799 5.13409 4.54799C5.37539 4.54799 5.56843 4.36688 5.56843 4.16313L5.56843 2.17096ZM2.79348 4.16313C2.79348 4.36688 2.60044 4.54799 2.35914 4.54799C2.11784 4.54799 1.9248 4.38952 1.9248 4.16313L1.9248 1.74083C1.9248 1.53709 2.11784 1.37862 2.35914 1.37862C2.60044 1.37862 2.79348 1.53709 2.79348 1.74083L2.79348 4.16313Z" transform="translate(73 4)" id="Shape" fill="#333334" fill-rule="evenodd" stroke="none" />
  </g>
</svg>