<?xml version="1.0" encoding="utf-8"?>
<svg width="65px" height="63px" viewBox="0 0 65 63" version="1.1" xmlns:xlink="http://www.w3.org/1999/xlink" xmlns="http://www.w3.org/2000/svg">
  <desc>Created with Lunacy</desc>
  <g id="team-(1)">
    <path d="M39.8198 0L39.8198 21.0726C37.4283 21.5579 35.6283 23.6725 35.6283 26.2084L35.6283 28.305C35.6283 30.0157 36.4582 31.5202 37.724 32.4764L37.724 35.6434L32.6688 37.0879C31.3195 37.4739 30.3888 38.7085 30.3888 40.1126C30.3888 38.7075 29.4581 37.4739 28.1088 37.0879L23.0536 35.6434L23.0536 32.4743C24.3194 31.5181 25.1494 30.0137 25.1494 28.305L25.1494 26.2084C25.1494 23.3137 22.8034 20.9667 19.9099 20.9667C17.0164 20.9667 14.6705 23.3137 14.6705 26.2084L14.6705 28.305C14.6705 30.0137 15.5004 31.5171 16.7662 32.4743L16.7662 35.6434L11.711 37.0879C10.3617 37.4739 9.43101 38.7085 9.43101 40.1126C9.43101 38.7075 8.50029 37.4739 7.15103 37.0879L2.09578 35.6434L2.09578 32.4764C3.36164 31.5191 4.19156 30.0147 4.19156 28.305L4.19156 26.2084C4.19156 23.6725 2.39152 21.5579 0 21.0726L0 0L39.8198 0ZM9.43101 9.43501L9.43101 5.24167C9.43101 4.08328 10.3689 3.145 11.5268 3.145C12.6847 3.145 13.6226 4.08328 13.6226 5.24167L13.6226 9.43501L9.43101 9.43501ZM21.7575 17.8217L21.9028 15.9252L22.9006 14.3056L21.142 13.5813L19.9099 12.1321L18.6788 13.5813L16.9203 14.3056L17.917 15.9252L18.0623 17.8217L19.9099 17.3738L21.7575 17.8217Z" transform="translate(12.59033 17.86035)" id="Shape" fill="#FEC108" fill-rule="evenodd" stroke="none" />
    <path d="M61.9588 53.9537L57.6613 52.7275L57.6613 50.8554C58.9446 49.7035 59.7581 48.0382 59.7581 46.181L59.7581 44.0848C59.7581 40.6166 56.9369 37.7963 53.4677 37.7963L53.4677 17.8825L55.5645 17.8825L55.5645 11.594L46.129 11.594L46.129 7.84072L50.2955 6.35354L32.5 0L14.7046 6.35354L18.871 7.84072L18.871 11.594L9.43548 11.594L9.43548 17.8825L11.5323 17.8825L11.5323 37.7963C8.06306 37.7963 5.24194 40.6166 5.24194 44.0848L5.24194 46.181C5.24194 48.0372 6.05536 49.7024 7.33871 50.8554L7.33871 52.7285L3.04124 53.9547C1.25059 54.4649 0 56.123 0 57.9858L0 62.9505L65 62.9505L65 57.9858C65 56.123 63.7494 54.4649 61.9588 53.9537ZM44.0594 6.35354L32.5 2.22617L20.9406 6.35354L23.8989 7.40982L32.1309 4.32338L32.8681 6.2865L26.9581 8.50192L32.5 10.4809L44.0594 6.35354ZM23.0645 9.33763L23.0645 13.6334L20.9677 12.9343L20.9677 8.58892L23.0645 9.33763ZM33.5484 12.332L44.0323 8.58892L44.0323 12.9343L33.5484 16.4286L33.5484 12.332ZM31.4516 16.4286L31.4516 12.332L25.1613 10.0869L25.1613 14.3324L31.4516 16.4286ZM15.7258 17.8825L13.629 17.8825L13.629 38.1632C16.0688 39.0286 17.8226 41.3525 17.8226 44.0848L17.8226 46.181C17.8226 48.0382 17.0092 49.7035 15.7258 50.8554L15.7258 52.7275L20.0233 53.9547C20.8178 54.1819 21.496 54.6435 22.0161 55.2397C22.5362 54.6435 23.2145 54.1819 24.009 53.9547L28.3064 52.7285L28.3064 50.8554C27.0231 49.7024 26.2097 48.0372 26.2097 46.181L26.2097 44.0848C26.2097 40.6166 29.0308 37.7963 32.5 37.7963C35.9692 37.7963 38.7903 40.6166 38.7903 44.0848L38.7903 46.181C38.7903 48.0382 37.9769 49.7035 36.6936 50.8554L36.6936 52.7275L40.991 53.9547C41.7855 54.1819 42.4638 54.6435 42.9839 55.2397C43.504 54.6435 44.1822 54.1819 44.9767 53.9547L49.2742 52.7285L49.2742 50.8554C47.9908 49.7024 47.1774 48.0372 47.1774 46.181L47.1774 44.0848C47.1774 41.3525 48.9312 39.0286 51.371 38.1632L51.371 17.8825L49.2742 17.8825L49.2742 22.0749L47.1774 22.0749L47.1774 15.7864L53.4677 15.7864L53.4677 13.6902L46.129 13.6902L46.129 14.445L32.5 18.9864L25.1613 16.5412L25.1613 20.1717C26.3786 20.6056 27.2581 21.7581 27.2581 23.123L27.2581 28.3634L20.9677 28.3634L20.9677 23.123C20.9677 21.7581 21.8472 20.6056 23.0645 20.1717L23.0645 15.8432L18.871 14.446L18.871 13.6902L11.5323 13.6902L11.5323 15.7864L17.8226 15.7864L17.8226 22.0749L15.7258 22.0749L15.7258 17.8825ZM25.1613 23.123L25.1613 26.2673L23.0645 26.2673L23.0645 23.123C23.0645 22.5442 23.5344 22.0749 24.1129 22.0749C24.6914 22.0749 25.1613 22.5442 25.1613 23.123ZM7.33871 44.0848C7.33871 41.7727 9.21946 39.8924 11.5323 39.8924C13.8451 39.8924 15.7258 41.7727 15.7258 44.0848L15.7258 46.181C15.7258 48.4931 13.8451 50.3734 11.5323 50.3734C9.21946 50.3734 7.33871 48.4931 7.33871 46.181L7.33871 44.0848ZM32.5 50.3734C30.1872 50.3734 28.3065 48.4931 28.3065 46.181L28.3065 44.0848C28.3065 41.7727 30.1872 39.8924 32.5 39.8924C34.8128 39.8924 36.6936 41.7727 36.6936 44.0848L36.6936 46.181C36.6936 48.4931 34.8128 50.3734 32.5 50.3734ZM57.6613 44.0848L57.6613 46.181C57.6613 48.4931 55.7805 50.3734 53.4677 50.3734C51.1549 50.3734 49.2742 48.4931 49.2742 46.181L49.2742 44.0848C49.2742 41.7727 51.1549 39.8924 53.4677 39.8924C55.7805 39.8924 57.6613 41.7727 57.6613 44.0848ZM13.629 52.1026C12.9717 52.3355 12.2684 52.4695 11.5323 52.4695C10.7961 52.4695 10.0928 52.3355 9.43548 52.1026L9.43548 53.2285C9.69553 53.6297 10.4178 54.5657 11.5323 54.5657C12.6467 54.5657 13.369 53.6297 13.629 53.2285L13.629 52.1026ZM34.5968 52.1026C33.9395 52.3355 33.2361 52.4695 32.5 52.4695C31.7639 52.4695 31.0605 52.3355 30.4032 52.1026L30.4032 53.2285C30.6633 53.6297 31.3856 54.5657 32.5 54.5657C33.6144 54.5657 34.3367 53.6297 34.5968 53.2285L34.5968 52.1026ZM53.4677 54.5657C54.5822 54.5657 55.3045 53.6297 55.5645 53.2285L55.5645 52.1026C54.9072 52.3355 54.2039 52.4695 53.4677 52.4695C52.7316 52.4695 52.0283 52.3365 51.371 52.1026L51.371 53.2285C51.631 53.6297 52.3533 54.5657 53.4677 54.5657ZM2.09677 57.9858C2.09677 57.0539 2.72284 56.2259 3.61714 55.97L7.93611 54.7367C8.54425 55.5289 9.72778 56.6619 11.5323 56.6619C13.3367 56.6619 14.5203 55.5289 15.1284 54.7356L19.4474 55.969C20.3427 56.2249 20.9677 57.0529 20.9677 57.9848L20.9677 60.8543L2.09677 60.8543L2.09677 57.9858ZM23.0645 57.9858L23.0645 60.8543L41.9355 60.8543L41.9355 57.9848C41.9355 57.0529 41.3104 56.2249 40.4151 55.969L36.0962 54.7356C35.488 55.5289 34.3045 56.6619 32.5 56.6619C30.6955 56.6619 29.512 55.5289 28.9038 54.7367L24.5849 55.97C23.6906 56.2259 23.0645 57.0539 23.0645 57.9858ZM44.0323 57.9858L44.0323 60.8543L62.9032 60.8543L62.9032 57.9848C62.9032 57.0529 62.2782 56.2249 61.3829 55.969L57.0639 54.7356C56.4557 55.5289 55.2722 56.6619 53.4677 56.6619C51.6633 56.6619 50.4797 55.5289 49.8716 54.7367L45.5526 55.97C44.6583 56.2259 44.0323 57.0539 44.0323 57.9858Z" id="Shape" fill="#323231" fill-rule="evenodd" stroke="none" />
    <path d="M0 0L2.04955 0L2.04955 2.04955L0 2.04955L0 0Z" transform="translate(47.13965 24.30182)" id="Path" fill="#323231" stroke="none" />
    <path d="M0 0L2.04955 0L2.04955 2.04955L0 2.04955L0 0Z" transform="translate(47.13965 28.40088)" id="Path" fill="#323231" stroke="none" />
    <path d="M0 0L2.04955 0L2.04955 16.6892L0 16.6892L0 0Z" transform="translate(43.04053 17.86035)" id="Path" fill="#323231" stroke="none" />
    <path d="M0 0L2.04955 0L2.04955 2.04955L0 2.04955L0 0Z" transform="translate(38.94141 19.03156)" id="Path" fill="#323231" stroke="none" />
    <path d="M0 0L2.04955 0L2.04955 2.04955L0 2.04955L0 0Z" transform="translate(38.94141 23.13062)" id="Path" fill="#323231" stroke="none" />
    <path d="M0 0L2.04955 0L2.04955 11.4189L0 11.4189L0 0Z" transform="translate(38.94141 27.22974)" id="Path" fill="#323231" stroke="none" />
    <path d="M0 0L2.04955 0L2.04955 2.04955L0 2.04955L0 0Z" transform="translate(15.81104 24.30182)" id="Path" fill="#323231" stroke="none" />
    <path d="M0 0L2.04955 0L2.04955 2.04955L0 2.04955L0 0Z" transform="translate(15.81104 28.40088)" id="Path" fill="#323231" stroke="none" />
    <path d="M0 0L2.04955 0L2.04955 8.49099L0 8.49099L0 0Z" transform="translate(24.00879 30.45044)" id="Path" fill="#323231" stroke="none" />
    <path d="M0 0L2.04955 0L2.04955 4.0991L0 4.0991L0 0Z" transform="translate(19.90967 30.45044)" id="Path" fill="#323231" stroke="none" />
    <path d="M4.53829 7.82364L1.73295 8.48998L1.51242 5.66016L0 3.24194L2.66892 2.16146L4.53829 0L6.40766 2.16247L9.07658 3.24295L7.56416 5.66116L7.34363 8.49099L4.53829 7.82364ZM4.53829 3.18847L3.93876 3.88256L3.08382 4.2286L3.56898 5.0044L3.63925 5.91136L4.53829 5.69647L5.43733 5.91136L5.50759 5.0044L5.99276 4.2286L5.13782 3.88256L4.53829 3.18847Z" transform="translate(28.10791 28.40088)" id="Shape" fill="#323231" fill-rule="evenodd" stroke="none" />
    <path d="M0 0L2.04955 0L2.04955 2.04955L0 2.04955L0 0Z" transform="translate(31.62158 21.08105)" id="Path" fill="#323231" stroke="none" />
    <path d="M0 0L2.04955 0L2.04955 2.04955L0 2.04955L0 0Z" transform="translate(31.62158 25.18018)" id="Path" fill="#323231" stroke="none" />
  </g>
</svg>