<?xml version="1.0" encoding="utf-8"?>
<svg width="65px" height="65px" viewBox="0 0 65 65" version="1.1" xmlns:xlink="http://www.w3.org/1999/xlink" xmlns="http://www.w3.org/2000/svg">
  <desc>Created with Lunacy</desc>
  <g id="consultant">
    <g id="Group">
      <path d="M8.37346 16.7552L6.28009 6.28321L8.37346 3.14161L4.18673 0L0 3.14161L2.09336 6.28321L0 16.7552L8.37346 16.7552Z" transform="translate(35.58718 47.12408)" id="Path" fill="#FEC108" stroke="none" />
      <path d="M27.9676 8.59237L27.7182 8.09178C25.2241 3.1007 20.2094 0 14.6316 0C6.56374 0 0 6.567 0 14.6388L0 18.8276L31.4005 18.8276L31.4005 13.7844C31.4005 11.5034 30.0379 9.46879 27.9676 8.59237L27.9676 8.59237Z" transform="translate(24.07368 0.02198718)" id="Path" fill="#FEC108" stroke="none" />
      <path d="M15.7002 18.8496L9.42014 14.6608L0 14.6608L0 0L18.8403 0L18.8403 14.6608L15.7002 14.6608L15.7002 18.8496Z" id="Path" fill="#FEC108" stroke="none" />
    </g>
    <path d="M31.5194 26.4749L44.6725 29.3965C48.063 30.1506 50.431 33.1039 50.431 36.5764L50.431 50.431L0 50.431L0 36.5764C0 33.1039 2.36806 30.1506 5.75855 29.3975L18.9116 26.476L18.9116 24.3839C16.9114 23.0758 15.3447 21.1659 14.4613 18.9123L11.5571 18.9123C9.23933 18.9123 7.35453 17.0275 7.35453 14.7098L7.35453 7.3554C7.35453 5.03767 9.23933 3.1529 11.5571 3.1529L13.6584 3.1529L13.6584 0.00102594L15.7597 0.00102594L15.7597 3.1529L16.1747 3.1529C18.1939 3.1529 20.0695 2.14947 21.1894 0.468369L22.9377 1.63391C22.5648 2.19359 22.1287 2.69684 21.6434 3.13905C23.5795 3.0698 25.3628 2.08843 26.4426 0.468369L28.191 1.63391C27.818 2.19359 27.382 2.69684 26.8967 3.13905C28.8328 3.0698 30.616 2.08843 31.6959 0.468369L33.4442 1.63391C33.0723 2.19359 32.6362 2.69582 32.1519 3.137C33.0333 3.10468 33.8885 2.87999 34.6713 2.47933L34.6713 0L36.7726 0L36.7726 3.15188L38.8739 3.15188C41.1917 3.15188 43.0765 5.03664 43.0765 7.35438L43.0765 14.7088C43.0765 17.0265 41.1917 18.9113 38.8739 18.9113L35.9698 18.9113C35.0864 21.1649 33.5196 23.0748 31.5194 24.3829L31.5194 26.4749ZM15.7597 5.25415L15.7597 14.7098C15.7597 19.9239 20.0013 24.1654 25.2155 24.1654C28.9179 24.1654 32.1227 22.02 33.673 18.9123L29.2237 18.9123C28.7886 20.1322 27.6328 21.0135 26.2651 21.0135L24.1638 21.0135C22.4263 21.0135 21.0119 19.5992 21.0119 17.8617C21.0119 16.1241 22.4263 14.7098 24.1638 14.7098L26.2651 14.7098C27.6328 14.7098 28.7886 15.5911 29.2237 16.811L34.4277 16.811C34.5821 16.1344 34.6713 15.4326 34.6713 14.7098L34.6713 4.75808C33.7961 5.07255 32.8758 5.25415 31.9344 5.25415L30.4688 5.25415L30.4688 4.3169C29.3191 4.92224 28.0248 5.25415 26.6812 5.25415L25.2155 5.25415L25.2155 4.3169C24.0659 4.92224 22.7715 5.25415 21.428 5.25415L19.9623 5.25415L19.9623 4.3169C18.8126 4.92224 17.5183 5.25415 16.1747 5.25415L15.7597 5.25415ZM11.5571 16.811C10.3982 16.811 9.45582 15.8686 9.45582 14.7098L9.45582 7.3554C9.45582 6.19653 10.3982 5.25415 11.5571 5.25415L13.6584 5.25415L13.6584 14.7098C13.6584 15.4285 13.7328 16.1282 13.859 16.811L11.5571 16.811ZM40.9752 7.3554C40.9752 6.19653 40.0328 5.25415 38.8739 5.25415L36.7726 5.25415L36.7726 14.7098C36.7726 15.4285 36.6982 16.1282 36.572 16.811L38.8739 16.811C40.0328 16.811 40.9752 15.8686 40.9752 14.7098L40.9752 7.3554ZM27.3168 17.8617C27.3168 18.4403 26.8459 18.9123 26.2662 18.9123L24.1649 18.9123C23.5852 18.9123 23.1142 18.4403 23.1142 17.8617C23.1142 17.283 23.5852 16.811 24.1649 16.811L26.2662 16.811C26.8459 16.811 27.3168 17.283 27.3168 17.8617ZM29.4181 25.4638C28.113 25.9758 26.6991 26.2667 25.2155 26.2667C23.7319 26.2667 22.318 25.9758 21.0129 25.4638L21.0129 26.8823L25.2155 31.0848L29.4181 26.8823L29.4181 25.4638ZM19.6273 28.4679L23.5672 32.4078L19.5693 35.0718L18.0082 28.8281L19.6273 28.4679ZM32.4228 28.8281L30.8617 35.0718L26.8638 32.4078L30.8037 28.4679L32.4228 28.8281ZM42.0259 48.3298L48.3297 48.3298L48.3297 36.5764C48.3297 34.0961 46.6383 31.9861 44.2164 31.4495L34.4738 29.2841L32.1771 38.475L25.2155 33.8334L18.254 38.474L15.9572 29.2831L6.21461 31.4485C3.79269 31.9861 2.10129 34.0961 2.10129 36.5764L2.10129 48.3298L8.40517 48.3298L8.40517 36.7729L10.5065 36.7729L10.5065 48.3298L39.9246 48.3298L39.9246 36.7729L42.0259 36.7729L42.0259 48.3298Z" transform="translate(14.56885 14.56897)" id="Shape" fill="#323231" fill-rule="evenodd" stroke="none" />
    <path d="M2.24138 1.12069C2.24138 1.73959 1.73959 2.24138 1.12069 2.24138C0.501793 2.24138 0 1.73959 0 1.12069C0 0.501793 0.501793 0 1.12069 0C1.73959 0 2.24138 0.501793 2.24138 1.12069Z" transform="translate(44.82764 21.85345)" id="Path" fill="#323231" stroke="none" />
    <path d="M2.24138 1.12069C2.24138 1.73959 1.73959 2.24138 1.12069 2.24138C0.501793 2.24138 0 1.73959 0 1.12069C0 0.501793 0.501793 0 1.12069 0C1.73959 0 2.24138 0.501793 2.24138 1.12069Z" transform="translate(32.5 21.85345)" id="Path" fill="#323231" stroke="none" />
    <path d="M0 0L10.6466 0L10.6466 2.24138L0 2.24138L0 0Z" transform="translate(3.922363 3.922424)" id="Path" fill="#323231" stroke="none" />
    <path d="M0 0L10.6466 0L10.6466 2.24138L0 2.24138L0 0Z" transform="translate(3.922363 8.405151)" id="Path" fill="#323231" stroke="none" />
    <path d="M5.06601 21.9996L21.8534 21.9996L21.8534 24.0948L2.56502 24.0948L0 20.2221L0 3.1428C0 1.41027 1.4009 0 3.12192 0C4.84294 0 6.24384 1.41027 6.24384 3.1428L6.24384 20.2221L5.06601 21.9996ZM3.12192 2.0952C3.6961 2.0952 4.16256 2.5658 4.16256 3.1428L4.16256 5.23801L2.08128 5.23801L2.08128 3.1428C2.08128 2.5658 2.54774 2.0952 3.12192 2.0952ZM2.08128 19.5868L3.12192 21.1582L4.16256 19.5868L4.16256 7.33321L2.08128 7.33321L2.08128 19.5868Z" transform="translate(0 16.81036)" id="Shape" fill="#323231" fill-rule="evenodd" stroke="none" />
    <path d="M0 0L2.24138 0L2.24138 2.24138L0 2.24138L0 0Z" transform="translate(19.61206 34.74139)" id="Path" fill="#323231" stroke="none" />
    <path d="M0 0L9.52586 0L9.52586 2.24138L0 2.24138L0 0Z" transform="translate(8.405273 34.74139)" id="Path" fill="#323231" stroke="none" />
    <path d="M0 0L9.52586 0L9.52586 2.24138L0 2.24138L0 0Z" transform="translate(8.405273 30.25861)" id="Path" fill="#323231" stroke="none" />
    <path d="M0 0L2.24138 0L2.24138 2.24138L0 2.24138L0 0Z" transform="translate(15.6897 25.77588)" id="Path" fill="#323231" stroke="none" />
    <path d="M0 0L5.0431 0L5.0431 2.24138L0 2.24138L0 0Z" transform="translate(8.405273 25.77588)" id="Path" fill="#323231" stroke="none" />
  </g>
</svg>