<?xml version="1.0" encoding="utf-8"?>
<svg width="65px" height="65px" viewBox="0 0 65 65" version="1.1" xmlns:xlink="http://www.w3.org/1999/xlink" xmlns="http://www.w3.org/2000/svg">
  <desc>Created with Lunacy</desc>
  <g id="dollhouse">
    <path d="M11.5323 0L5.24194 0C2.3517 0 0 2.3517 0 5.24194L0 22.0161L16.7742 22.0161L16.7742 5.24194C16.7742 2.3517 14.4225 0 11.5323 0Z" transform="translate(12.58057 37.74194)" id="Path" fill="#FEC108" stroke="none" />
    <path d="M60.6345 37.7419C63.0414 37.7419 65 35.7834 65 33.3764L65 32.393C65 30.7774 64.1139 29.3016 62.6893 28.5404L56.6129 25.3005L56.6129 0L8.3871 0L8.3871 25.3005L2.31075 28.5414C0.886112 29.3016 0 30.7774 0 32.393L0 33.3764C0 35.7834 1.95856 37.7419 4.36555 37.7419C5.03308 37.7419 5.69088 37.5797 6.29032 37.2838L6.29032 58.7097L5.24194 58.7097C2.3517 58.7097 0 61.0614 0 63.9516L0 65L65 65L65 63.9516C65 61.0614 62.6483 58.7097 59.7581 58.7097L58.7097 58.7097L58.7097 37.2848C59.3081 37.5797 59.9669 37.7419 60.6345 37.7419ZM5.48612 35.3483L32.5 20.0043L59.5149 35.3493C59.8553 35.5423 60.2434 35.6452 60.6344 35.6452C61.885 35.6452 62.9032 34.627 62.9032 33.3764L62.9032 32.393C62.9032 31.5545 62.443 30.7872 61.7018 30.3904L35.5791 16.4599L36.5666 14.6093L48.2258 20.8275L48.2258 8.3871L36.6807 8.3871L36.6807 6.29032L50.3226 6.29032L50.3226 21.946L54.5161 24.182L54.5161 2.09677L10.4839 2.09677L10.4839 24.182L14.6774 21.946L14.6774 6.29032L28.3192 6.29032L28.3192 8.3871L16.7742 8.3871L16.7742 20.8285L28.4344 14.6093L29.4209 16.4609L3.29822 30.3914C2.55698 30.7872 2.09677 31.5535 2.09677 32.393L2.09677 33.3764C2.09677 34.627 3.11496 35.6452 4.36555 35.6452C4.75665 35.6452 5.14467 35.5423 5.48612 35.3483ZM8.3871 58.7097L8.3871 36.1115L32.5 22.4154L56.6129 36.1115L56.6129 58.7097L8.3871 58.7097ZM62.7241 62.9032C62.291 61.6828 61.1254 60.8064 59.7581 60.8064L5.24194 60.8064C3.87463 60.8064 2.70902 61.6828 2.27594 62.9032L62.7241 62.9032Z" id="Shape" fill="#323231" fill-rule="evenodd" stroke="none" />
    <path d="M18.871 14.6774L0 14.6774L0 0L18.871 0L18.871 14.6774ZM2.09677 2.09677L8.3871 2.09677L8.3871 6.29032L2.09677 6.29032L2.09677 2.09677ZM10.4839 2.09677L16.7742 2.09677L16.7742 6.29032L10.4839 6.29032L10.4839 2.09677ZM8.3871 8.3871L2.09677 8.3871L2.09677 12.5806L8.3871 12.5806L8.3871 8.3871ZM16.7742 8.3871L10.4839 8.3871L10.4839 12.5806L16.7742 12.5806L16.7742 8.3871Z" transform="translate(33.54834 35.64514)" id="Shape" fill="#323231" fill-rule="evenodd" stroke="none" />
    <path d="M8.3871 6.29032L0 6.29032L0 0L8.3871 0L8.3871 6.29032ZM6.29032 2.09677L2.09677 2.09677L2.09677 4.19355L6.29032 4.19355L6.29032 2.09677Z" transform="translate(16.77441 41.93549)" id="Shape" fill="#323231" fill-rule="evenodd" stroke="none" />
    <path d="M0 0L2.09677 0L2.09677 2.09678L0 2.09678L0 0Z" transform="translate(14.67725 50.32257)" id="Path" fill="#323231" stroke="none" />
    <path d="M5.44824 16.7978C5.20713 16.7978 4.9609 16.7339 4.71365 16.591C3.48609 15.8779 3.96933 14.2639 4.43671 12.7016C4.58362 12.2152 4.81296 11.4469 4.84674 11.0619C4.50479 10.9089 3.75945 10.7348 3.28645 10.6247C1.67138 10.2475 0 9.85637 0 8.39897C0 6.94055 1.67138 6.55047 3.28798 6.1732C3.76047 6.06314 4.50581 5.88909 4.84674 5.73705C4.81398 5.35261 4.58362 4.58168 4.43671 4.09639C3.97036 2.53558 3.48712 0.921024 4.71365 0.207936C5.91612 -0.489282 7.05255 0.710118 8.15008 1.87368C8.52019 2.26683 9.11247 2.89596 9.43548 3.10278C9.7585 2.89596 10.3508 2.26581 10.7219 1.87266C11.8164 0.711142 12.9497 -0.492353 14.1573 0.206912C15.3849 0.92 14.9016 2.53405 14.4343 4.09639C14.2873 4.5827 14.058 5.35107 14.0242 5.73603C14.3662 5.88909 15.1115 6.06314 15.5845 6.1732C17.1996 6.55047 18.871 6.94157 18.871 8.39897C18.871 9.8574 17.1996 10.2475 15.583 10.6247C15.1105 10.7348 14.3652 10.9089 14.0242 11.0609C14.057 11.4453 14.2873 12.2163 14.4343 12.7016C14.9006 14.2624 15.3839 15.8769 14.1573 16.59C12.9528 17.2862 11.8184 16.0878 10.7209 14.9243C10.3508 14.5301 9.7585 13.901 9.43548 13.6941C9.11247 13.901 8.52019 14.5311 8.14906 14.9243C7.27882 15.8477 6.38451 16.7978 5.44824 16.7978L5.44824 16.7978Z" transform="translate(23.06445 4.181702)" id="Path" fill="#FEC108" stroke="none" />
  </g>
</svg>