<?xml version="1.0" encoding="utf-8"?>
<svg width="421px" height="510px" viewBox="0 0 421 510" version="1.1" xmlns:xlink="http://www.w3.org/1999/xlink" xmlns="http://www.w3.org/2000/svg">
  <desc>Created with Lunacy</desc>
  <defs>
    <path d="M0 509.799L420.109 509.799L420.109 0L0 0L0 509.799Z" id="path_1" />
    <clipPath id="mask_1">
      <use xlink:href="#path_1" />
    </clipPath>
  </defs>
  <g id="Group-133">
    <path d="M104.585 63.705L15.178 63.705C13.852 63.705 12.767 62.62 12.767 61.294L0 3.616C0 2.29 1.085 1.205 2.411 1.205L94.767 0C96.093 0 97.178 1.085 97.178 2.41L106.996 61.294C106.996 62.62 105.911 63.705 104.585 63.705" transform="translate(65.20508 272.6563)" id="Fill-1" fill="#FFFFFF" stroke="none" />
    <path d="M16.178 65.705L105.586 65.705C107.466 65.705 108.997 64.174 108.997 62.293L99.177 3.32C99.129 1.481 97.618 0 95.754 0L3.411 1.205C1.53 1.205 0 2.735 0 4.616L0 4.725L12.769 62.412C12.832 64.238 14.337 65.705 16.178 65.705ZM14.767 62.184L2.003 4.521C2.052 3.787 2.666 3.205 3.424 3.205L95.767 2C96.545 2 97.178 2.632 97.178 3.41L106.995 62.366C106.957 63.11 106.339 63.705 105.586 63.705L16.178 63.705C15.4 63.705 14.767 63.072 14.767 62.293L14.767 62.184Z" transform="translate(64.20459 271.6567)" id="Fill-3" fill="#323231" fill-rule="evenodd" stroke="none" />
    <path d="M0 0.5L10.333 0.5" transform="translate(218.0493 462.8613)" id="Fill-5" fill="#FFFFFF" stroke="none" />
    <path d="M0 509.799L420.109 509.799L420.109 0L0 0L0 509.799Z" id="Clip-8" fill="none" stroke="none" />
    <g clip-path="url(#mask_1)">
      <path d="M0 2L10.333 2L10.333 0L0 0L0 2Z" transform="translate(218.0498 462.3608)" id="Fill-7" fill="#323231" stroke="none" />
      <path d="M0 0.5L10.333 0.5" transform="translate(42.12744 462.8613)" id="Fill-9" fill="#FFFFFF" stroke="none" />
      <path d="M0 2L10.333 2L10.333 0L0 0L0 2Z" transform="translate(42.12793 462.3608)" id="Fill-10" fill="#323231" stroke="none" />
      <path d="M5.33333 0C5.33333 0 -6.66666 25 5.33333 56" transform="translate(239.3828 423.1943)" id="Fill-11" fill="#FFFFFF" stroke="none" />
      <path d="M5.36045 56.794C-6.65754 25.749 5.26945 0.254 5.39145 0L7.19445 0.865C7.07745 1.111 -4.46755 25.865 7.22545 56.071L5.36045 56.794Z" transform="translate(238.4229 422.7617)" id="Fill-12" fill="#323231" stroke="none" />
      <path d="M0 0.5L44.029 0.5" transform="translate(231.021 480.6943)" id="Fill-13" fill="#FFFFFF" stroke="none" />
      <path d="M0 2L44.029 2L44.029 0L0 0L0 2Z" transform="translate(231.021 480.1948)" id="Fill-14" fill="#323231" stroke="none" />
      <path d="M17.0088 0C17.0088 0 24.0088 23.667 1.34182 35C-5.65818 6.334 17.0088 0 17.0088 0" transform="translate(243.374 444.1943)" id="Fill-15" fill="#FFFFFF" stroke="none" />
      <path d="M1.36244 36.465L1.66044 37.683L2.78144 37.123C25.9304 25.548 19.0324 1.189 18.9604 0.945L18.6814 0L17.7314 0.265C17.4964 0.331 -5.78357 7.198 1.36244 36.465ZM3.01644 34.745C-2.08156 11.457 13.1354 4.077 17.2854 2.523C18.2374 6.98 20.8274 25.059 3.01644 34.745Z" transform="translate(242.3818 442.9663)" id="Fill-16" fill="#323231" fill-rule="evenodd" stroke="none" />
      <path d="M29.333 14.667C29.333 22.768 22.767 29.334 14.666 29.334C6.566 29.334 0 22.768 0 14.667C0 6.566 6.566 0 14.666 0C22.767 0 29.333 6.566 29.333 14.667" transform="translate(232.0498 395.1943)" id="Fill-17" fill="#FEC108" stroke="none" />
      <path d="M0 15.667C0 24.306 7.027 31.334 15.666 31.334C24.305 31.334 31.333 24.306 31.333 15.667C31.333 7.028 24.305 0 15.666 0C7.027 0 0 7.028 0 15.667ZM2 15.667C2 8.131 8.131 2 15.666 2C23.202 2 29.333 8.131 29.333 15.667C29.333 23.203 23.202 29.334 15.666 29.334C8.131 29.334 2 23.203 2 15.667Z" transform="translate(231.0498 394.1943)" id="Fill-18" fill="#323231" fill-rule="evenodd" stroke="none" />
      <path d="M0 0.5L48 0.5" transform="translate(271.3828 463.3613)" id="Fill-19" fill="#FFFFFF" stroke="none" />
      <path d="M0 2L48 2L48 0L0 0L0 2Z" transform="translate(271.3828 462.8608)" id="Fill-20" fill="#323231" stroke="none" />
      <path d="M0 0.5L61.667 0.5" transform="translate(61.38281 463.4863)" id="Fill-21" fill="#FFFFFF" stroke="none" />
      <path d="M0 2L61.667 2L61.667 0L0 0L0 2Z" transform="translate(61.38184 462.9858)" id="Fill-22" fill="#323231" stroke="none" />
      <path d="M0 0.5L32.667 0.5" transform="translate(381.7158 465.3613)" id="Fill-23" fill="#FFFFFF" stroke="none" />
      <path d="M0 2L32.667 2L32.667 0L0 0L0 2Z" transform="translate(381.7158 464.8608)" id="Fill-24" fill="#323231" stroke="none" />
      <path d="M0 0.5L51 0.5" transform="translate(345.3828 458.3613)" id="Fill-25" fill="#FFFFFF" stroke="none" />
      <path d="M0 2L51 2L51 0L0 0L0 2Z" transform="translate(345.3828 457.8608)" id="Fill-26" fill="#323231" stroke="none" />
      <path d="M22.667 0C22.667 0 22 38.334 0 47.667" transform="translate(377.3828 411.1943)" id="Fill-27" fill="#FFFFFF" stroke="none" />
      <path d="M0.781 48.605L0 46.763C21.157 37.788 22.051 0.376 22.057 0L24.057 0.035C24.055 0.131 23.854 9.867 20.939 20.613C17.04 34.985 10.069 44.665 0.781 48.605" transform="translate(376.9927 411.1772)" id="Fill-28" fill="#323231" stroke="none" />
      <path d="M0 0C0 0 15.333 37.333 0 59.333" transform="translate(373.0498 399.5283)" id="Fill-29" fill="#FFFFFF" stroke="none" />
      <path d="M1.745 60.285L0.104 59.14C14.945 37.848 0.151 1.128 0 0.76L1.849 0C1.889 0.095 5.74999 9.581 7.66199 21.639C10.211 37.71 8.16499 51.073 1.745 60.285" transform="translate(372.1255 399.1489)" id="Fill-30" fill="#323231" stroke="none" />
      <path d="M1.64539 0C1.64539 0 24.3784 9.608 18.7534 34.318C-7.84362 21.537 1.64539 0 1.64539 0" transform="translate(352.0767 423.3574)" id="Fill-31" fill="#FFFFFF" stroke="none" />
      <path d="M19.2662 36.525L20.3972 37.068L20.6742 35.845C26.4192 10.611 3.2152 0.484 2.9812 0.384L2.0742 0L1.6762 0.902C1.5772 1.126 -7.8888 23.475 19.2662 36.525ZM18.9862 34.155C-2.2488 23.316 1.7042 6.872 3.1382 2.68C7.1872 4.773 22.8022 14.243 18.9862 34.155Z" transform="translate(351.1304 422.0527)" id="Fill-32" fill="#323231" fill-rule="evenodd" stroke="none" />
      <path d="M29.333 14.667C29.333 22.768 22.767 29.334 14.667 29.334C6.566 29.334 0 22.768 0 14.667C0 6.566 6.566 0 14.667 0C22.767 0 29.333 6.566 29.333 14.667" transform="translate(359.3828 370.1943)" id="Fill-33" fill="#FEC108" stroke="none" />
      <path d="M0 15.667C0 24.306 7.028 31.334 15.667 31.334C24.306 31.334 31.333 24.306 31.333 15.667C31.333 7.028 24.306 0 15.667 0C7.028 0 0 7.028 0 15.667ZM2 15.667C2 8.131 8.131 2 15.667 2C23.202 2 29.333 8.131 29.333 15.667C29.333 23.203 23.202 29.334 15.667 29.334C8.131 29.334 2 23.203 2 15.667Z" transform="translate(358.3828 369.1943)" id="Fill-34" fill="#323231" fill-rule="evenodd" stroke="none" />
      <path d="M23.9607 10.9978C24.5157 17.6018 19.6107 23.4058 13.0067 23.9608C6.40067 24.5158 0.597671 19.6098 0.0426711 13.0058C-0.511329 6.40082 4.39367 0.597818 10.9977 0.0428182C17.6027 -0.512182 23.4067 4.39282 23.9607 10.9978" transform="translate(390.3306 386.9917)" id="Fill-35" fill="#FEC108" stroke="none" />
      <path d="M0.0459782 14.0895C0.614978 20.8645 6.31098 26.0035 12.993 26.0035C13.355 26.0035 13.722 25.9875 14.09 25.9565C17.55 25.6665 20.691 24.0455 22.932 21.3935C25.173 18.7405 26.248 15.3745 25.957 11.9135C25.666 8.45351 24.046 5.31251 21.393 3.07051C18.742 0.829514 15.373 -0.243486 11.914 0.0465141C4.77098 0.645514 -0.553022 6.94551 0.0459782 14.0895ZM12.082 2.03851C12.395 2.01251 12.708 1.99951 13.02 1.99951C15.614 1.99951 18.099 2.90551 20.103 4.59951C22.347 6.49551 23.718 9.15251 23.964 12.0815C24.209 15.0095 23.301 17.8575 21.404 20.1025C19.507 22.3465 16.851 23.7185 13.922 23.9645C7.88798 24.4505 2.54598 19.9665 2.03898 13.9215C1.53198 7.87751 6.03798 2.54651 12.082 2.03851Z" transform="translate(389.3311 385.9917)" id="Fill-36" fill="#323231" fill-rule="evenodd" stroke="none" />
      <path d="M3.5 91.249L3.5 91.249C1.575 91.249 0 89.674 0 87.749L0 3.5C0 1.575 1.575 0 3.5 0C5.425 0 7 1.575 7 3.5L7 87.749C7 89.674 5.425 91.249 3.5 91.249" transform="translate(281.3828 372.1123)" id="Fill-37" fill="#FFFFFF" stroke="none" />
      <path d="M0 88.749C0 91.23 2.019 93.249 4.5 93.249C6.981 93.249 9 91.23 9 88.749L9 4.5C9 2.019 6.981 0 4.5 0C2.019 0 0 2.019 0 4.5L0 88.749ZM2 4.5C2 3.121 3.121 2 4.5 2C5.879 2 7 3.121 7 4.5L7 88.749C7 90.128 5.879 91.249 4.5 91.249C3.121 91.249 2 90.128 2 88.749L2 4.5Z" transform="translate(280.3828 371.1123)" id="Fill-38" fill="#323231" fill-rule="evenodd" stroke="none" />
      <path d="M3.5 83.242L3.5 83.242C1.575 83.242 0 81.667 0 79.742L0 3.5C0 1.575 1.575 0 3.5 0C5.425 0 7 1.575 7 3.5L7 79.742C7 81.667 5.425 83.242 3.5 83.242" transform="translate(84.38281 380.1196)" id="Fill-39" fill="#FFFFFF" stroke="none" />
      <path d="M0 80.742C0 83.224 2.019 85.242 4.5 85.242C6.981 85.242 9 83.224 9 80.742L9 4.5C9 2.019 6.981 0 4.5 0C2.019 0 0 2.019 0 4.5L0 80.742ZM2 4.5C2 3.121 3.122 2 4.5 2C5.878 2 7 3.121 7 4.5L7 80.742C7 82.121 5.878 83.242 4.5 83.242C3.122 83.242 2 82.121 2 80.742L2 4.5Z" transform="translate(83.38281 379.1191)" id="Fill-40" fill="#323231" fill-rule="evenodd" stroke="none" />
      <path d="M258.566 16.013L8.006 16.013C3.603 16.013 0 12.41 0 8.006C0 3.603 3.603 0 8.006 0L258.566 0C262.97 0 266.573 3.603 266.573 8.006C266.573 12.41 262.97 16.013 258.566 16.013" transform="translate(47.29443 364.1064)" id="Fill-41" fill="#FFFFFF" stroke="none" />
      <path d="M9.006 18.013L259.566 18.013C264.532 18.013 268.572 13.973 268.572 9.006C268.572 4.04 264.532 0 259.566 0L9.006 0C4.04 0 0 4.04 0 9.006C0 13.973 4.04 18.013 9.006 18.013ZM2 9.006C2 5.143 5.143 2 9.006 2L259.566 2C263.429 2 266.572 5.143 266.572 9.006C266.572 12.869 263.429 16.013 259.566 16.013L9.006 16.013C5.143 16.013 2 12.869 2 9.006Z" transform="translate(46.29492 363.1064)" id="Fill-42" fill="#323231" fill-rule="evenodd" stroke="none" />
      <path d="M140.623 29L23.9791 106.779C17.0201 111.543 7.42911 109.747 2.66511 102.788C-2.09789 95.829 -0.301886 86.237 6.65711 81.474L120.123 0" transform="translate(1.009766 336.3613)" id="Fill-43" fill="#FFFFFF" stroke="none" />
      <path d="M16.3548 111.269C11.1418 111.269 6.01178 108.785 2.85078 104.165C-2.23722 96.734 -0.330223 86.548 7.10178 81.461L120.55 0L121.716 1.625L8.25078 83.099C1.70978 87.577 0.0367774 96.514 4.50078 103.037C6.65378 106.181 9.91778 108.303 13.6928 109.009C17.4708 109.72 21.2798 108.919 24.4248 106.767L141.079 28.981L142.188 30.645L25.5438 108.424C22.7348 110.347 19.5288 111.269 16.3548 111.269" transform="translate(0 335.5488)" id="Fill-44" fill="#323231" stroke="none" />
      <path d="M0 0L18.529 25.377" transform="translate(43.53564 391.9004)" id="Fill-45" fill="#FFFFFF" stroke="none" />
      <path d="M18.529 26.557L0 1.18L1.615 0L20.144 25.377L18.529 26.557Z" transform="translate(42.72852 391.3105)" id="Fill-46" fill="#323231" stroke="none" />
      <path d="M0 0L18.153 25.506" transform="translate(33.00977 400.6367)" id="Fill-47" fill="#FFFFFF" stroke="none" />
      <path d="M18.153 26.666L0 1.16L1.63 0L19.783 25.506L18.153 26.666Z" transform="translate(32.19531 400.0566)" id="Fill-48" fill="#323231" stroke="none" />
      <path d="M19.9 4.78201L0 0" transform="translate(21.49072 420.1353)" id="Fill-49" fill="#FFFFFF" stroke="none" />
      <path d="M19.9 6.728L0 1.946L0.467 0L20.368 4.783L19.9 6.728Z" transform="translate(21.25684 419.1616)" id="Fill-50" fill="#323231" stroke="none" />
      <path d="M0 20.469L1.476 0" transform="translate(29.78467 412.1338)" id="Fill-51" fill="#FFFFFF" stroke="none" />
      <path d="M1.995 20.613L0 20.468L1.475 0L3.471 0.144L1.995 20.613Z" transform="translate(28.7876 412.062)" id="Fill-52" fill="#323231" stroke="none" />
      <path d="M8.027 4.014C8.027 6.23001 6.23 8.02701 4.013 8.02701C1.797 8.02701 0 6.23001 0 4.014C0 1.797 1.797 0 4.013 0C6.23 0 8.027 1.797 8.027 4.014" transform="translate(114.6895 300.4951)" id="Fill-53" fill="#FEC108" stroke="none" />
      <path d="M0 5.014C0 7.777 2.249 10.026 5.013 10.026C7.778 10.026 10.027 7.777 10.027 5.014C10.027 2.249 7.778 0 5.013 0C2.249 0 0 2.249 0 5.014ZM2 5.014C2 3.352 3.351 2 5.013 2C6.675 2 8.027 3.352 8.027 5.014C8.027 6.675 6.675 8.026 5.013 8.026C3.351 8.026 2 6.675 2 5.014Z" transform="translate(113.6899 299.4951)" id="Fill-54" fill="#323231" fill-rule="evenodd" stroke="none" />
      <path d="M44 7.667C41.657 7.667 39.418 8.091 37.329 8.831C34.975 3.627 29.749 0 23.667 0C15.382 0 8.667 6.716 8.667 15C8.667 18.438 9.835 21.596 11.781 24.126C4.91 26.661 0 33.249 0 41C0 50.941 8.059 59 18 59C26.318 59 33.528 55.013 44 49.667C53.838 44.645 64 38.712 64 27.667C64 16.621 55.045 7.667 44 7.667" transform="translate(55.71631 22.52783)" id="Fill-55" fill="#FEC108" stroke="none" />
      <path d="M0 42C0 52.477 8.524 61 19 61C27.024 61 33.925 57.464 43.475 52.571L45.455 51.558C55.851 46.25 66 40.111 66 28.667C66 17.087 56.58 7.667 45 7.667C42.931 7.667 40.864 7.983 38.845 8.607C36.1 3.35 30.63 0 24.667 0C15.845 0 8.667 7.178 8.667 16C8.667 19.11 9.552 22.085 11.239 24.677C4.466 27.716 0 34.521 0 42ZM10.667 16C10.667 8.28 16.947 2 24.667 2C30.147 2 35.153 5.236 37.418 10.243L37.797 11.081L38.663 10.773C40.736 10.04 42.868 9.667 45 9.667C55.477 9.667 64 18.19 64 28.667C64 38.981 54.39 44.751 44.546 49.776L42.563 50.791C33.262 55.557 26.542 59 19 59C9.626 59 2 51.374 2 42C2 34.923 6.472 28.519 13.128 26.065L14.403 25.594L13.574 24.517C11.672 22.043 10.667 19.098 10.667 16Z" transform="translate(54.71582 21.52783)" id="Fill-56" fill="#323231" fill-rule="evenodd" stroke="none" />
      <path d="M1.389 11.121L0 9.682L10.041 0L19.736 9.694L18.322 11.108L10.016 2.803L1.389 11.121Z" transform="translate(381.5215 135.1265)" id="Fill-57" fill="#323231" stroke="none" />
      <path d="M0 19.515L2 19.515L2 0L0 0L0 19.515Z" transform="translate(390.3828 136.5278)" id="Fill-58" fill="#323231" stroke="none" />
      <path d="M18.255 11.406L10.261 2.8L1.334 10.795L0 9.304L10.39 0L19.721 10.045L18.255 11.406Z" transform="translate(168.5835 70.38379)" id="Fill-59" fill="#323231" stroke="none" />
      <path d="M1.999 19.575L0 19.502L0.719001 0L2.718 0.073L1.999 19.575Z" transform="translate(177.0239 71.74072)" id="Fill-60" fill="#323231" stroke="none" />
      <path d="M9.69401 11.121L0 1.427L1.414 0.013L9.71901 8.318L18.346 0L19.735 1.439L9.69401 11.121Z" transform="translate(367.5093 129.3384)" id="Fill-61" fill="#323231" stroke="none" />
      <path d="M0 19.515L2 19.515L2 0L0 0L0 19.515Z" transform="translate(376.3828 119.543)" id="Fill-62" fill="#323231" stroke="none" />
      <path d="M153.78 29.0024L3.37144 7.79644C1.23744 7.49644 -0.26256 5.50444 0.0384397 3.37044C0.33944 1.23744 2.33144 -0.26256 4.46544 0.0384403L154.875 21.2434C157.008 21.5444 158.508 23.5364 158.207 25.6694C157.906 27.8034 155.914 29.3034 153.78 29.0024" transform="translate(239.5957 19.07666)" id="Fill-63" fill="#FEC108" stroke="none" />
      <path d="M154.642 30.9928C154.873 31.0258 155.104 31.0418 155.333 31.0418C156.392 31.0418 157.419 30.6998 158.283 30.0488C159.335 29.2568 160.016 28.1068 160.198 26.8098C160.577 24.1248 158.7 21.6328 156.016 21.2538L5.60575 0.0488295C4.30575 -0.134171 3.01575 0.200829 1.96375 0.99283C0.911745 1.78483 0.231745 2.93483 0.0487454 4.23183C-0.134255 5.52783 0.201745 6.82183 0.993745 7.87283C1.78575 8.92483 2.93575 9.60483 4.23275 9.78783L154.642 30.9928ZM157.081 28.4508C156.455 28.9218 155.691 29.1198 154.921 29.0128L4.51175 7.80683C3.74375 7.69883 3.06275 7.29483 2.59175 6.66983C2.12075 6.04483 1.92075 5.27883 2.02875 4.51083C2.13775 3.74283 2.54075 3.06183 3.16575 2.59083C3.79275 2.12083 4.55875 1.92083 5.32575 2.02983L155.736 23.2348C157.329 23.4588 158.442 24.9378 158.218 26.5308C158.109 27.2988 157.706 27.9798 157.081 28.4508Z" transform="translate(238.5952 18.07617)" id="Fill-64" fill="#323231" fill-rule="evenodd" stroke="none" />
      <path d="M153.78 29.0024L3.37144 7.79744C1.23744 7.49644 -0.26256 5.50444 0.0384397 3.37144C0.33944 1.23744 2.33144 -0.26256 4.46544 0.0384397L154.875 21.2444C157.008 21.5444 158.508 23.5364 158.207 25.6704C157.906 27.8034 155.914 29.3034 153.78 29.0024" transform="translate(235.1895 32.13525)" id="Fill-65" fill="#FFFFFF" stroke="none" />
      <path d="M154.642 30.9931C154.874 31.0261 155.104 31.0421 155.332 31.0421C157.741 31.0421 159.853 29.2641 160.198 26.8111C160.577 24.1261 158.7 21.6331 156.016 21.2551L5.60575 0.0491067C4.30475 -0.134893 3.01475 0.202107 1.96375 0.994107C0.911745 1.78511 0.231745 2.93611 0.0487454 4.23211C-0.134255 5.52911 0.201745 6.82211 0.993745 7.87411C1.78575 8.92611 2.93575 9.60611 4.23275 9.78811L154.642 30.9931ZM158.218 26.5321C157.993 28.1241 156.524 29.2421 154.921 29.0131L4.51175 7.80811C3.74375 7.70011 3.06275 7.29611 2.59175 6.67111C2.12075 6.04611 1.92075 5.27911 2.02875 4.51211C2.13775 3.74411 2.54075 3.06211 3.16575 2.59211C3.79275 2.12111 4.55875 1.92411 5.32575 2.03011L155.736 23.2351C157.329 23.4601 158.442 24.9391 158.218 26.5321Z" transform="translate(234.189 31.13428)" id="Fill-66" fill="#323231" fill-rule="evenodd" stroke="none" />
      <path d="M117.685 23.9134L3.37144 7.79744C1.23744 7.49644 -0.26256 5.50444 0.0384397 3.37144C0.33844 1.23744 2.33044 -0.26256 4.46444 0.0384397L118.779 16.1544C120.913 16.4554 122.412 18.4474 122.111 20.5804C121.81 22.7144 119.818 24.2144 117.685 23.9134" transform="translate(235.1899 46.65625)" id="Fill-67" fill="#FFFFFF" stroke="none" />
      <path d="M118.547 25.9055C118.778 25.9385 119.009 25.9545 119.238 25.9545C120.296 25.9545 121.323 25.6115 122.188 24.9605C123.24 24.1685 123.92 23.0185 124.103 21.7225C124.285 20.4255 123.95 19.1325 123.158 18.0815C122.366 17.0285 121.217 16.3485 119.92 16.1665L5.60482 0.0494684C4.30482 -0.135532 3.01482 0.202468 1.96382 0.994468C0.911824 1.78647 0.230824 2.93647 0.0488238 4.23247C-0.134176 5.52947 0.200824 6.82247 0.993824 7.87447C1.78582 8.92647 2.93582 9.60647 4.23182 9.78947L118.547 25.9055ZM3.16582 2.59247C3.68082 2.20547 4.29082 2.00147 4.91782 2.00147C5.05382 2.00147 5.18882 2.01147 5.32582 2.03047L119.641 18.1465C120.408 18.2545 121.09 18.6585 121.561 19.2835C122.031 19.9085 122.231 20.6755 122.122 21.4425C122.014 22.2105 121.61 22.8925 120.985 23.3625C120.359 23.8345 119.594 24.0335 118.826 23.9245L4.51182 7.80847C3.74382 7.70047 3.06282 7.29647 2.59182 6.67147C2.12082 6.04647 1.92082 5.27947 2.02882 4.51247C2.13782 3.74447 2.54082 3.06347 3.16582 2.59247Z" transform="translate(234.189 45.6543)" id="Fill-68" fill="#323231" fill-rule="evenodd" stroke="none" />
      <path d="M187.972 105.842C188.566 106.617 189.453 107.047 190.394 107.047C190.63 107.047 190.869 107.02 191.108 106.964C192.299 106.687 193.187 105.77 193.427 104.571C194.414 99.6292 195.547 94.6712 196.643 89.8752C198.565 81.4632 200.554 72.7642 201.8 63.9262L205.278 39.2562C206.278 32.1582 201.318 25.5692 194.221 24.5682L20.8605 0.128171C13.7565 -0.871828 7.17354 4.08917 6.17254 11.1862L0.128536 54.0562C-0.354464 57.4812 0.533536 60.8992 2.62754 63.6812C4.72154 66.4622 7.76154 68.2602 11.1865 68.7432L134.202 86.0892C148.137 88.0582 162.072 90.0262 176.01 91.9692C176.439 92.0292 176.846 92.0862 177.181 92.2192C178.787 92.8542 180.646 95.7192 182.005 97.8122C182.566 98.6752 183.096 99.4912 183.569 100.107L187.972 105.842ZM8.15354 11.4652C8.92654 5.97717 13.6475 2.00017 19.0385 2.00017C19.5475 2.00017 20.0625 2.03517 20.5815 2.10817L193.941 26.5492C199.947 27.3962 204.144 32.9712 203.298 38.9772L199.819 63.6472C198.585 72.4012 196.606 81.0582 194.693 89.4302C193.594 94.2382 192.458 99.2102 191.466 104.179C191.34 104.81 190.812 104.979 190.654 105.016C190.494 105.052 189.949 105.133 189.558 104.624L185.155 98.8902C184.73 98.3352 184.222 97.5522 183.683 96.7222C182.011 94.1472 180.116 91.2292 177.917 90.3592C177.359 90.1392 176.79 90.0592 176.286 89.9892C162.35 88.0452 148.415 86.0772 134.481 84.1092L11.4665 66.7632C8.56954 66.3542 5.99854 64.8332 4.22554 62.4782C2.45254 60.1232 1.70154 57.2312 2.10954 54.3352L8.15354 11.4652Z" transform="translate(213.333 0)" id="Fill-69" fill="#323231" fill-rule="evenodd" stroke="none" />
      <path d="M145.63 13.1549L3.40692 7.39892C1.45592 7.31992 -0.0760767 5.65892 0.00292331 3.70792L0.0149233 3.40692C0.0939233 1.45592 1.75492 -0.0760767 3.70592 0.00292331L145.93 5.75892C147.881 5.83792 149.412 7.49892 149.333 9.44992L149.321 9.75092C149.242 11.7019 147.581 13.2339 145.63 13.1549" transform="translate(108.4238 116.0024)" id="Fill-70" fill="#FFFFFF" stroke="none" />
      <path d="M146.59 15.153C146.653 15.156 146.714 15.157 146.777 15.157C147.919 15.157 149.006 14.731 149.856 13.948C150.751 13.122 151.272 12 151.321 10.789L151.333 10.49C151.381 9.279 150.954 8.11899 150.128 7.22399C149.302 6.32799 148.181 5.80799 146.97 5.759L4.74674 0.00299458C3.53774 -0.0400054 2.37674 0.380995 1.48074 1.20699C0.58474 2.03299 0.0647402 3.15499 0.0157402 4.36599L0.00374015 4.66599C-0.0972598 7.17299 1.85974 9.29499 4.36674 9.39699L146.59 15.153ZM2.83674 2.67799C3.31374 2.23799 3.92274 1.99899 4.56174 1.99899C4.59674 1.99899 4.63074 1.99899 4.66574 2.00099L146.89 7.75699C147.566 7.78499 148.195 8.07699 148.658 8.57899C149.122 9.082 149.362 9.73199 149.334 10.41L149.323 10.709C149.295 11.386 149.003 12.014 148.5 12.478C147.998 12.941 147.362 13.182 146.67 13.155L4.44774 7.39899C3.04174 7.34199 1.94474 6.15199 2.00174 4.74699L2.01374 4.44699C2.04174 3.76999 2.33374 3.14199 2.83674 2.67799Z" transform="translate(107.4238 115.0034)" id="Fill-71" fill="#323231" fill-rule="evenodd" stroke="none" />
      <path d="M182.029 88.2C181.233 88.2 180.462 87.859 179.887 87.224L175.168 82.007C174.66 81.446 174.078 80.693 173.462 79.897C171.973 77.971 169.934 75.335 168.397 74.88C168.083 74.787 167.709 74.773 167.312 74.759C160.85 74.527 154.387 74.289 147.926 74.048L146.291 71.364C152.752 71.605 160.923 72.528 167.384 72.76C167.864 72.778 168.407 72.797 168.965 72.962C171.122 73.6 173.206 76.296 175.044 78.673C175.635 79.439 176.195 80.161 176.65 80.665L181.37 85.882C181.739 86.288 182.147 86.207 182.306 86.152C182.676 86.025 182.917 85.687 182.949 85.248C183.316 80.225 183.817 75.183 184.301 70.307C185.144 61.824 186.015 53.051 186.186 44.259L186.668 19.479C186.785 13.44 182.296 8.35402 176.661 8.14302L13.2346 2.00702C10.6516 1.89702 8.17365 2.86302 6.24065 4.68802C4.13665 6.67602 2.89665 9.53802 2.83865 12.542L2.00265 55.601C1.88465 61.64 6.37465 66.726 12.0096 66.937L64.4686 68.907L64.3936 70.906L11.9346 68.936C5.21665 68.684 -0.136353 62.685 0.00264694 55.562L0.838647 12.503C0.907647 8.96602 2.37565 5.58802 4.86765 3.23502C7.19365 1.03702 10.1956 -0.107976 13.3096 0.00802353L176.735 6.14402C183.453 6.39602 188.805 12.396 188.668 19.518L188.186 44.298C188.013 53.17 187.138 61.983 186.292 70.505C185.808 75.368 185.308 80.397 184.943 85.394C184.852 86.638 184.091 87.654 182.957 88.044C182.65 88.149 182.338 88.2 182.029 88.2" transform="translate(87.44922 98.52734)" id="Fill-72" fill="#323231" stroke="none" />
      <path d="M74.0709 4.35285L2.81492 24.3049C1.63992 24.6339 0.410923 23.9419 0.0819227 22.7679C-0.247077 21.5929 0.444923 20.3639 1.61892 20.0349L72.8749 0.0818471C74.0499 -0.247153 75.2789 0.445847 75.6079 1.61985C75.9369 2.79385 75.2449 4.02385 74.0709 4.35285" transform="translate(303.1812 275.2607)" id="Fill-73" fill="#FFFFFF" stroke="none" />
      <path d="M0.119418 24.0381C0.517418 25.4581 1.81342 26.3891 3.21942 26.3891C3.50542 26.3891 3.79642 26.3501 4.08542 26.2691L75.3414 6.31612C77.0504 5.83812 78.0504 4.05912 77.5724 2.35112C77.0934 0.642119 75.3164 -0.359881 73.6064 0.120119L2.35042 20.0721C0.641418 20.5511 -0.358582 22.3301 0.119418 24.0381ZM74.1454 2.04612C74.2544 2.01612 74.3654 2.00112 74.4734 2.00112C75.0054 2.00112 75.4954 2.35312 75.6464 2.89012C75.8274 3.53612 75.4494 4.20912 74.8024 4.39112L3.54642 24.3431C2.90142 24.5231 2.22742 24.1461 2.04542 23.4991C1.86542 22.8531 2.24342 22.1801 2.88942 21.9981L74.1454 2.04612Z" transform="translate(302.1802 274.2598)" id="Fill-74" fill="#323231" fill-rule="evenodd" stroke="none" />
      <path d="M7.27087 55.6526C8.30387 59.1487 11.4069 61.5006 14.6399 61.5006C15.1979 61.5006 15.7579 61.4306 16.3139 61.2846L76.8839 45.3526C84.0109 43.4796 91.1389 41.6077 98.2609 39.7206C98.4399 39.6736 98.5679 39.6386 98.7249 39.6296C99.4569 39.6316 101.023 40.7737 101.96 41.4566C102.437 41.8056 102.877 42.1246 103.236 42.3466L106.587 44.4216C107.305 44.8666 108.162 44.8466 108.824 44.3666C109.504 43.8756 109.809 43.0016 109.603 42.1426C108.941 39.3857 108.342 36.5886 107.763 33.8826C106.745 29.1216 105.691 24.1976 104.257 19.3456L100.27 5.84765C99.0579 1.74865 94.9969 -0.776353 91.2279 0.215647L5.03287 22.8896C3.31287 23.3426 1.86787 24.4746 0.964868 26.0786C-0.0481323 27.8766 -0.276132 30.1056 0.340868 32.1956L7.27087 55.6526ZM5.54287 24.8236L91.7359 2.15065L91.7369 2.15065C94.4769 1.42765 97.4449 3.34265 98.3519 6.41465L102.34 19.9126C103.752 24.6906 104.797 29.5766 105.807 34.3006C106.389 37.0187 106.99 39.8286 107.658 42.6106C107.679 42.6976 107.658 42.7376 107.639 42.7206L104.289 40.6456C103.964 40.4456 103.569 40.1556 103.137 39.8406C101.718 38.8056 100.11 37.6326 98.7309 37.6296C98.3119 37.6336 98.0159 37.7156 97.7499 37.7876C90.6289 39.6736 83.5029 41.5466 76.3769 43.4186L15.8049 59.3506C13.0589 60.0696 10.0959 58.1576 9.18887 55.0866L2.25887 31.6296C1.79487 30.0546 1.95787 28.3896 2.70687 27.0606C3.34187 25.9316 4.34887 25.1376 5.54287 24.8236Z" transform="translate(288.479 263.3252)" id="Fill-75" fill="#323231" fill-rule="evenodd" stroke="none" />
      <path d="M145.63 13.1549L3.40692 7.39893C1.45592 7.31993 -0.0760767 5.65893 0.00292331 3.70792L0.0149233 3.40692C0.0939233 1.45592 1.75492 -0.0760767 3.70592 0.00292331L145.93 5.75893C147.881 5.83793 149.412 7.49893 149.333 9.44993L149.321 9.75093C149.242 11.7019 147.581 13.2339 145.63 13.1549" transform="translate(108.4238 129.9492)" id="Fill-76" fill="#FFFFFF" stroke="none" />
      <path d="M146.59 15.1529C146.651 15.1549 146.714 15.1569 146.775 15.1569C149.2 15.1569 151.222 13.2349 151.32 10.7889L151.332 10.4899C151.434 7.98286 149.477 5.86086 146.97 5.75886L4.74681 0.00286289C3.53781 -0.0391371 2.37681 0.381863 1.48081 1.20786C0.584813 2.03286 0.064813 3.15486 0.015813 4.36486L0.00381295 4.66686C-0.0981871 7.17386 1.85881 9.29586 4.36581 9.39686L146.59 15.1529ZM149.322 10.7089C149.265 12.1149 148.072 13.2189 146.67 13.1549L4.44681 7.39886C3.04181 7.34186 1.94481 6.15286 2.00181 4.74686L2.01381 4.44686C2.04181 3.76986 2.33381 3.14186 2.83681 2.67786C3.33881 2.21486 3.99281 1.98086 4.66581 2.00086L146.89 7.75686C148.294 7.81386 149.391 9.00386 149.334 10.4099L149.322 10.7089Z" transform="translate(107.4243 128.9502)" id="Fill-77" fill="#323231" fill-rule="evenodd" stroke="none" />
      <path d="M3.55556 0C3.55556 0 -4.44445 17 3.55556 24.5" transform="translate(195.8276 259.3613)" id="Fill-78" fill="#FFFFFF" stroke="none" />
      <path d="M3.88512 25.655C-4.54887 17.749 3.32512 0.721 3.66412 0L5.47412 0.851C5.39712 1.014 -2.12187 17.282 5.25312 24.196L3.88512 25.655Z" transform="translate(194.814 258.936)" id="Fill-79" fill="#323231" stroke="none" />
      <path d="M3.55556 0C3.55556 0 -4.44445 17 3.55556 24.5" transform="translate(168.2256 259.3613)" id="Fill-80" fill="#FFFFFF" stroke="none" />
      <path d="M3.88512 25.655C-4.54887 17.749 3.32512 0.721 3.66412 0L5.47412 0.851C5.39712 1.014 -2.12187 17.282 5.25312 24.196L3.88512 25.655Z" transform="translate(167.2119 258.936)" id="Fill-81" fill="#323231" stroke="none" />
      <path d="M74.0706 4.35285L2.81457 24.3049C1.64057 24.6339 0.410569 23.9419 0.0815684 22.7679C-0.246432 21.5929 0.444569 20.3629 1.61957 20.0349L72.8756 0.0818471C74.0496 -0.247153 75.2796 0.445847 75.6086 1.61985C75.9366 2.79385 75.2456 4.02385 74.0706 4.35285" transform="translate(305.5977 286.8906)" id="Fill-82" fill="#FFFFFF" stroke="none" />
      <path d="M1.64192 25.9718C2.13192 26.2468 2.67192 26.3878 3.21792 26.3878C3.50792 26.3878 3.79892 26.3478 4.08492 26.2678L75.3409 6.31477C77.0489 5.83677 78.0499 4.05877 77.5729 2.34977C77.3409 1.52377 76.7999 0.837769 76.0499 0.414769C75.2999 -0.00623101 74.4309 -0.110231 73.6069 0.118769L2.35192 20.0708C0.642916 20.5478 -0.358084 22.3268 0.118916 24.0368C0.350916 24.8618 0.891916 25.5488 1.64192 25.9718ZM74.1459 2.04477C74.2529 2.01477 74.3629 1.99977 74.4709 1.99977C74.6779 1.99977 74.8829 2.05377 75.0699 2.15777C75.3549 2.31877 75.5599 2.57777 75.6469 2.88777C75.8269 3.53477 75.4489 4.20777 74.8019 4.38977L3.54592 24.3418C3.23392 24.4308 2.90692 24.3878 2.62192 24.2288C2.33692 24.0668 2.13192 23.8088 2.04492 23.4988C1.86492 22.8518 2.24292 22.1778 2.88992 21.9968L74.1459 2.04477Z" transform="translate(304.5967 285.8911)" id="Fill-83" fill="#323231" fill-rule="evenodd" stroke="none" />
      <path d="M172.179 0.0160116L10.2733 8.96301C4.16926 9.30101 -0.43874 14.877 0.0332598 21.355L3.12726 63.851C3.59926 70.33 8.97926 75.354 15.0823 75.017C26.0973 74.408 37.1123 73.8 48.1263 73.191L114.63 69.516C132.758 68.514 150.887 67.531 169.013 66.499C169.456 66.474 169.904 66.45 170.343 66.536C172.903 67.04 176.2 71.386 178.155 73.178C179.866 74.747 181.577 76.316 183.288 77.885C184.555 79.045 186.485 78.119 186.451 76.366C186.193 62.695 186.912 49.33 185.915 35.636C185.322 27.485 184.728 19.333 184.134 11.182C183.662 4.70301 178.283 -0.320988 172.179 0.0160116" transform="translate(232.645 170.6636)" id="Fill-84" fill="#FFFFFF" stroke="none" />
      <path d="M183.611 79.6225C184.17 80.1355 184.863 80.4015 185.564 80.4015C185.955 80.4015 186.35 80.3185 186.727 80.1485C187.813 79.6585 188.473 78.5855 188.45 77.3475C188.356 72.3945 188.391 67.3985 188.426 62.5665C188.486 54.0895 188.548 45.3235 187.911 36.5635L186.129 12.1095C185.618 5.07385 179.752 -0.357955 173.122 0.0184395L173.121 0.0184965L11.2152 8.9655C8.12021 9.1365 5.25921 10.5445 3.16121 12.9315C0.919211 15.4795 -0.219789 18.9415 0.0352107 22.4285L3.12821 64.9245C3.64021 71.9595 9.47321 77.3865 16.1362 77.0165L130.584 70.6945C143.746 69.9705 156.908 69.2475 170.067 68.4985L170.084 68.4976C170.47 68.4759 170.835 68.4554 171.148 68.5175C172.704 68.8245 174.956 71.2335 176.6 72.9925C177.282 73.7215 177.924 74.4095 178.477 74.9155L183.611 79.6225ZM171.535 66.5555C171.227 66.4955 170.927 66.4765 170.641 66.4765C170.401 66.4765 170.171 66.4895 169.954 66.5015C156.795 67.2505 143.635 67.9735 130.474 68.6975L16.0252 75.0185C10.4342 75.3375 5.55621 70.7335 5.12221 64.7795L2.02921 22.2835C1.81321 19.3275 4.50421 11.6215 11.3272 10.9625L173.232 2.0155L173.233 2.0155C178.831 1.7075 183.702 6.3005 184.135 12.2545L185.916 36.7095C186.548 45.3895 186.486 54.1145 186.426 62.5525C186.391 67.3965 186.356 72.4065 186.45 77.3855C186.458 77.8165 186.254 78.1675 185.904 78.3255C185.754 78.3935 185.359 78.5115 184.962 78.1485L179.829 73.4415C179.332 72.9875 178.715 72.3265 178.062 71.6265C176.029 69.4525 173.725 66.9875 171.535 66.5555Z" transform="translate(231.647 169.6626)" id="Fill-85" fill="#323231" fill-rule="evenodd" stroke="none" />
      <path d="M129.396 7.08858L3.84744 17.6306C1.90244 17.7946 0.175441 16.3356 0.0124408 14.3896C-0.150559 12.4436 1.30744 10.7176 3.25344 10.5546L128.802 0.0125794C130.749 -0.151421 132.474 1.30758 132.637 3.25358C132.801 5.19958 131.342 6.92458 129.396 7.08858" transform="translate(267.8662 212.7573)" id="Fill-86" fill="#FFFFFF" stroke="none" />
      <path d="M1.61637 18.5648C2.44837 19.2678 3.47537 19.6438 4.54637 19.6438C4.67437 19.6438 4.80237 19.6388 4.93137 19.6278L130.48 9.08483C131.687 8.98383 132.786 8.41583 133.572 7.48483C134.358 6.55483 134.736 5.37683 134.633 4.16983C134.533 2.96283 133.964 1.86483 133.034 1.07783C132.103 0.291834 130.927 -0.0841664 129.718 0.0158336L4.17037 10.5588C2.96237 10.6598 1.86537 11.2278 1.07837 12.1588C0.291374 13.0888 -0.0856256 14.2668 0.0163744 15.4738C0.117374 16.6808 0.685374 17.7788 1.61637 18.5648ZM129.886 2.00883C129.957 2.00283 130.03 1.99983 130.101 1.99983C130.7 1.99983 131.276 2.21083 131.743 2.60583C132.265 3.04683 132.584 3.66183 132.641 4.33783C132.698 5.01283 132.486 5.67183 132.044 6.19383C131.603 6.71683 130.988 7.03583 130.312 7.09183L4.76337 17.6348C4.09337 17.6898 3.42937 17.4798 2.90737 17.0378C2.38437 16.5958 2.06537 15.9808 2.00837 15.3068C1.95237 14.6308 2.16437 13.9718 2.60637 13.4498C3.04737 12.9268 3.66237 12.6078 4.33737 12.5518L129.886 2.00883Z" transform="translate(266.8667 211.7573)" id="Fill-87" fill="#323231" fill-rule="evenodd" stroke="none" />
      <path d="M148.033 7.08858L3.84758 19.1956C1.90158 19.3596 0.176579 17.9006 0.0125792 15.9546C-0.151421 14.0086 1.30758 12.2826 3.25458 12.1196L147.439 0.0125794C149.386 -0.151421 151.111 1.30758 151.274 3.25358C151.438 5.19958 149.979 6.92458 148.033 7.08858" transform="translate(249.2305 198.1055)" id="Fill-88" fill="#FFFFFF" stroke="none" />
      <path d="M1.61634 20.1291C2.44734 20.8321 3.47534 21.2071 4.54634 21.2071C4.67434 21.2071 4.80234 21.2021 4.93134 21.1911L149.116 9.08408C150.323 8.98308 151.422 8.41508 152.208 7.48408C152.994 6.55408 153.372 5.37608 153.269 4.16908C153.169 2.96108 152.6 1.86408 151.67 1.07708C150.739 0.291078 149.563 -0.0819224 148.354 0.0150776L4.17034 12.1221C2.96334 12.2241 1.86434 12.7921 1.07834 13.7221C0.292344 14.6531 -0.0856563 15.8311 0.0163437 17.0381C0.117344 18.2451 0.685344 19.3431 1.61634 20.1291ZM148.522 2.00808C148.593 2.00208 148.666 1.99908 148.737 1.99908C149.336 1.99908 149.912 2.21008 150.379 2.60508C150.901 3.04608 151.22 3.66108 151.277 4.33608C151.334 5.01108 151.122 5.67108 150.68 6.19308C150.239 6.71608 149.624 7.03508 148.948 7.09108L4.76334 19.1981C4.09534 19.2591 3.42934 19.0431 2.90734 18.6021C2.38434 18.1601 2.06534 17.5451 2.00834 16.8701C1.95234 16.1951 2.16434 15.5361 2.60534 15.0131C3.04734 14.4911 3.66234 14.1721 4.33834 14.1151L148.522 2.00808Z" transform="translate(248.2305 197.106)" id="Fill-89" fill="#323231" fill-rule="evenodd" stroke="none" />
      <path d="M106.735 7.08844L3.84758 15.7284C1.90158 15.8914 0.175579 14.4334 0.0125792 12.4864C-0.151421 10.5414 1.30758 8.81544 3.25458 8.65144L106.141 0.0124408C108.087 -0.150559 109.813 1.30744 109.976 3.25344C110.139 5.19944 108.681 6.92544 106.735 7.08844" transform="translate(288.0732 183.5156)" id="Fill-90" fill="#FEC108" stroke="none" />
      <path d="M1.61634 16.6623C2.44734 17.3643 3.47534 17.7403 4.54534 17.7403C4.67334 17.7403 4.80234 17.7353 4.93134 17.7243L107.818 9.08433C109.025 8.98333 110.123 8.41533 110.91 7.48433C111.696 6.55433 112.073 5.37633 111.971 4.16933C111.871 2.96233 111.302 1.86433 110.372 1.07833C109.441 0.291327 108.264 -0.0826727 107.056 0.0153273L4.16934 8.65533C2.96234 8.75633 1.86434 9.32533 1.07834 10.2553C0.292344 11.1863 -0.0856563 12.3633 0.0163437 13.5703C0.117344 14.7773 0.685344 15.8753 1.61634 16.6623ZM107.224 2.00833C107.295 2.00233 107.367 1.99933 107.438 1.99933C108.037 1.99933 108.614 2.21033 109.081 2.60533C109.603 3.04733 109.922 3.66233 109.979 4.33633C110.036 5.01233 109.823 5.67133 109.381 6.19333C108.94 6.71633 108.326 7.03533 107.651 7.09133L4.76334 15.7313C4.09434 15.7933 3.42934 15.5763 2.90734 15.1343C2.38434 14.6933 2.06534 14.0783 2.00834 13.4023C1.95234 12.7283 2.16434 12.0683 2.60534 11.5463C3.04634 11.0233 3.66234 10.7053 4.33734 10.6483L107.224 2.00833Z" transform="translate(287.0737 182.5161)" id="Fill-91" fill="#323231" fill-rule="evenodd" stroke="none" />
      <path d="M7.668 0L0 44.854" transform="translate(155.3813 227.8613)" id="Fill-92" fill="#FEC108" stroke="none" />
      <path d="M1.972 48.485L0 48.147L8.65501 0L10.626 0.337L1.972 48.485Z" transform="translate(154.395 224.3999)" id="Fill-93" fill="#323231" stroke="none" />
      <path d="M21.675 63.78C17.351 63.78 13.872 63.64 10.597 63.34L9.75 63.264C6.617 62.991 2.719 62.651 0 60.721L1.157 59.091C3.434 60.706 7.032 61.02 9.924 61.272L10.779 61.347C14.487 61.687 18.473 61.819 23.707 61.77C34.972 61.667 45.249 58.633 56.128 55.42C66.578 52.333 65.925 44.061 65.917 43.978L63.675 0.102L65.674 0L67.911 43.834C67.917 43.89 68.705 53.79 56.695 57.338C45.677 60.592 35.271 63.664 23.726 63.77C23.021 63.777 22.338 63.78 21.675 63.78" transform="translate(167.9712 252.144)" id="Fill-94" fill="#323231" stroke="none" />
      <path d="M0 92.303L2.359 90.304L20.086 89.378C22.962 89.229 25.811 88.669 28.552 87.716C32.597 86.31 39.272 84.701 47.001 82.838C54.076 81.134 62.095 79.201 68.978 77.177C69.851 76.92 70.752 76.685 71.662 76.447C75.012 75.573 78.476 74.669 80.962 72.519C83.427 70.389 84.819 66.764 85.101 61.744C85.288 58.386 85.231 54.941 85.176 51.609C85.139 49.402 85.101 47.119 85.134 44.875C85.177 42.027 85.386 39.157 85.588 36.382C85.726 34.49 85.868 32.532 85.955 30.611C86.159 26.109 86.382 21.608 86.605 17.108C86.887 11.406 87.169 5.704 87.413 0L89.411 0.086C89.167 5.794 88.885 11.5 88.602 17.207C88.38 21.704 88.157 26.202 87.953 30.7C87.864 32.651 87.721 34.621 87.582 36.528C87.382 39.274 87.176 42.115 87.134 44.905C87.101 47.117 87.139 49.383 87.175 51.574C87.231 54.943 87.289 58.425 87.097 61.856C86.784 67.438 85.16 71.534 82.271 74.032C79.431 76.487 75.738 77.45 72.168 78.382C71.277 78.615 70.396 78.844 69.542 79.095C62.611 81.134 54.567 83.073 47.469 84.782C39.792 86.633 33.161 88.232 29.209 89.605C26.29 90.62 23.255 91.216 20.19 91.376L0 92.303Z" transform="translate(169.79 245.0586)" id="Fill-95" fill="#323231" stroke="none" />
      <path d="M1.05 43.708L0 42.007C0.084 41.954 8.512 36.723 16.342 29.383C23.877 22.317 20.987 0.491 20.957 0.271L22.939 0C23.067 0.938 25.991 23.078 17.709 30.842C9.728 38.324 1.136 43.655 1.05 43.708" transform="translate(223.6079 321.249)" id="Fill-96" fill="#323231" stroke="none" />
      <path d="M60.2217 157.013L60.2217 157.013C52.1817 159.561 43.5207 155.067 40.9727 147.028L0.713691 19.9623C-1.83431 11.9223 2.65969 3.26131 10.6997 0.71331C18.7387 -1.83369 27.4007 2.65931 29.9477 10.7003L70.2077 137.765C72.7547 145.804 68.2617 154.466 60.2217 157.013" transform="translate(134.5425 351.0679)" id="Fill-97" fill="#FFFFFF" stroke="none" />
      <path d="M49.0813 157.883C51.4523 159.112 54.0233 159.735 56.6093 159.735C58.2593 159.735 59.9143 159.482 61.5283 158.971C65.6713 157.658 69.0623 154.797 71.0763 150.914C73.0913 147.03 73.4783 142.61 72.1653 138.468L31.9053 11.4021C29.1853 2.81609 19.9903 -1.95691 11.4013 0.765091C2.81625 3.48509 -1.95575 12.6841 0.764254 21.2691L41.0243 148.334C42.3373 152.478 45.1993 155.868 49.0813 157.883ZM12.0063 2.67109C13.4413 2.21709 14.8943 2.00009 16.3253 2.00009C22.4083 2.00009 28.0663 5.90709 29.9993 12.0061L70.2593 139.071C71.4103 142.705 71.0703 146.584 69.3013 149.992C67.5333 153.401 64.5573 155.913 60.9243 157.064C57.2893 158.215 53.4113 157.875 50.0033 156.107C46.5943 154.339 44.0823 151.363 42.9303 147.73L2.67125 20.6651C0.284254 13.1311 4.47125 5.05909 12.0063 2.67109Z" transform="translate(133.5381 350.0635)" id="Fill-98" fill="#323231" fill-rule="evenodd" stroke="none" />
      <path d="M0 9.33301L27.667 0" transform="translate(163.0493 445.8613)" id="Fill-99" fill="#FFFFFF" stroke="none" />
      <path d="M0.64 11.228L0 9.333L27.667 0L28.307 1.895L0.64 11.228Z" transform="translate(162.7295 444.9136)" id="Fill-100" fill="#323231" stroke="none" />
      <path d="M0 10L29.667 0" transform="translate(166.3828 458.8613)" id="Fill-101" fill="#FFFFFF" stroke="none" />
      <path d="M0.639 11.895L0 9.99999L29.667 0L30.306 1.895L0.639 11.895Z" transform="translate(166.0635 457.9136)" id="Fill-102" fill="#323231" stroke="none" />
      <path d="M10.333 0L0 17.667" transform="translate(181.7163 467.8613)" id="Fill-103" fill="#FFFFFF" stroke="none" />
      <path d="M1.727 18.677L0 17.667L10.333 0L12.06 1.01L1.727 18.677Z" transform="translate(180.853 467.3564)" id="Fill-104" fill="#323231" stroke="none" />
      <path d="M19.167 7.33301L0 0" transform="translate(176.8823 473.8613)" id="Fill-105" fill="#FFFFFF" stroke="none" />
      <path d="M19.167 9.20001L0 1.867L0.715 0L19.882 7.33301L19.167 9.20001Z" transform="translate(176.5249 472.9282)" id="Fill-106" fill="#323231" stroke="none" />
      <path d="M0.00704753 27.261C0.00704753 27.261 -0.641952 11.011 10.516 5.261C21.674 -0.489 27.924 0.011 35.924 0.011C43.924 0.011 57.4921 0 57.4921 0C57.4921 0 75.703 5.261 77.188 19.761" transform="translate(157.7095 154.8506)" id="Fill-107" fill="#FFFFFF" stroke="none" />
      <path d="M76.6834 30.722C76.6834 30.722 77.8724 27.472 77.1954 20.863C75.8594 7.818 59.9504 2.503 58.3454 2C56.8474 2.002 44.4334 2.011 36.9254 2.011L35.1484 2.006C28.1284 1.965 22.0794 1.943 11.9754 7.15C1.50639 12.546 2.00239 30.055 2.00839 30.211L0.0103895 30.291C-0.0176105 29.601 -0.531611 11.346 11.0594 5.372C21.5994 -0.059 27.8834 -0.027 35.1584 0.006L36.9254 0.011C44.9254 0.011 58.4934 0 58.4934 0L58.7714 0.039C58.9634 0.095 63.5264 1.433 68.3364 4.609C74.7944 8.872 78.5454 14.422 79.1854 20.659C80.3234 31.768 76.8024 31.123 76.6834 30.722" transform="translate(156.7075 153.8506)" id="Fill-108" fill="#323231" stroke="none" />
      <path d="M4.89516 17.121L0.145159 30.25C0.145159 30.25 -2.35484 50.25 13.3952 49.75C29.1452 49.25 31.8952 36 31.8952 36L32.3952 0" transform="translate(185.9878 193.8613)" id="Fill-109" fill="#FFFFFF" stroke="none" />
      <path d="M13.8266 50.773C9.81063 50.773 6.59063 49.472 4.24663 46.9C-1.12837 41.002 0.104627 30.581 0.159627 30.14L0.211627 29.923L4.96163 16.794L6.84263 17.475L2.13263 30.492C2.02163 31.569 1.23963 40.637 5.72963 45.558C7.77863 47.802 10.6986 48.889 14.3696 48.764C28.6196 48.312 31.6216 37.103 31.9036 35.897L32.4016 0L34.4016 0.027L33.8806 36.217C33.8516 36.357 30.7816 50.244 14.4336 50.763C14.2296 50.77 14.0266 50.773 13.8266 50.773" transform="translate(184.981 193.8477)" id="Fill-110" fill="#323231" stroke="none" />
      <path d="M22.6475 0C22.6475 0 29.8245 18.767 53.3975 16.5C65.1605 16 61.3975 32.5 50.8975 30.5C47.7165 32.5 38.1475 52.503 19.1475 46.502C0.147507 40.5 -1.41749 25 0.739507 15.5C2.89751 6 22.6475 0 22.6475 0" transform="translate(167.4854 163.3613)" id="Fill-111" fill="#FFFFFF" stroke="none" />
      <path d="M19.8029 48.683C22.3569 49.49 24.7489 49.842 26.9869 49.842C38.5369 49.842 45.9399 40.437 49.8249 35.501C50.7179 34.367 51.5679 33.286 52.1179 32.786C55.5839 33.295 58.7119 32.023 60.7539 29.251C62.7709 26.514 63.1909 22.919 61.8009 20.306C61.0429 18.883 59.0739 16.536 54.2589 16.732C31.7679 18.901 24.8219 1.606 24.5379 0.869L24.2029 0L23.3139 0.27C22.4849 0.522 2.98194 6.554 0.721942 16.506C-0.204058 20.581 -3.63306 41.28 19.8029 48.683ZM2.67194 16.949C4.43394 9.192 19.3509 3.708 23.0629 2.456C24.8899 6.215 33.3669 20.748 54.3969 18.727C57.1519 18.61 59.0959 19.481 60.0349 21.246C61.0559 23.163 60.6889 25.967 59.1439 28.065C57.4889 30.312 54.9029 31.292 52.0419 30.745L51.6549 30.671L51.3219 30.881C50.5189 31.386 49.6179 32.531 48.2529 34.264C43.5599 40.228 34.8219 51.33 20.4059 46.776C9.35094 43.284 -1.11306 33.614 2.67194 16.949Z" transform="translate(166.5283 162.1338)" id="Fill-112" fill="#323231" fill-rule="evenodd" stroke="none" />
      <path d="M0 0.5L15.241 0.5" transform="translate(219.3828 218.2407)" id="Fill-113" fill="#FFFFFF" stroke="none" />
      <path d="M0 2L16.241 2L16.241 0L0 0L0 2Z" transform="translate(218.3828 217.7412)" id="Fill-114" fill="#323231" stroke="none" />
      <path d="M0 0.5L8.476 0.5" transform="translate(179.1328 219.5332)" id="Fill-115" fill="#FFFFFF" stroke="none" />
      <path d="M0 2L8.476 2L8.476 0L0 0L0 2Z" transform="translate(179.1328 219.0332)" id="Fill-116" fill="#323231" stroke="none" />
      <path d="M0 0C0 0 3.247 8.49998 17.024 0" transform="translate(180.5806 195.8613)" id="Fill-117" fill="#FFFFFF" stroke="none" />
      <path d="M7.433 5.633C6.357 5.633 5.352 5.476 4.421 5.16C1.116 4.04 0.044 1.323 0 1.208L1.869 0.494L0.934 0.850999L1.866 0.487C1.898 0.568 2.686 2.481 5.107 3.28C8.095 4.266 12.355 3.132 17.434 0L18.484 1.702C14.243 4.318 10.541 5.633 7.433 5.633" transform="translate(179.6465 195.0107)" id="Fill-118" fill="#323231" stroke="none" />
      <path d="M0 0C0 0 0.637 8.98899 3.85 9.10699C8.054 9.26199 8.054 0 8.054 0" transform="translate(177.9336 180.3594)" id="Fill-119" fill="#FFFFFF" stroke="none" />
      <path d="M4.948 10.18C4.902 10.18 4.857 10.179 4.811 10.178C0.899 10.033 0.117 1.792 0 0.141L1.995 0C2.238 3.393 3.376 8.12301 4.885 8.17901C5.331 8.20101 5.721 8.04201 6.081 7.69601C7.693 6.143 8.05 1.665 8.052 0.0700001L10.052 0.0710001C10.052 0.744001 9.979 6.71701 7.47 9.13501C6.759 9.82001 5.889 10.18 4.948 10.18" transform="translate(176.9365 180.2891)" id="Fill-120" fill="#323231" stroke="none" />
      <path d="M0 0C0 0 0.458 6.468 2.771 6.553C5.795 6.665 5.795 0 5.795 0" transform="translate(190.4814 180.3594)" id="Fill-121" fill="#FFFFFF" stroke="none" />
      <path d="M3.841 7.62601C3.804 7.62601 3.768 7.62501 3.731 7.62401C0.753 7.51501 0.122 1.87 0 0.142L1.995 0C2.196 2.813 3.093 5.59901 3.804 5.62501C4.061 5.63201 4.258 5.55101 4.462 5.355C5.431 4.42 5.793 1.618 5.793 0.0710001L7.793 0.0710001C7.793 0.568001 7.738 4.975 5.849 6.79501C5.284 7.34001 4.592 7.62601 3.841 7.62601" transform="translate(189.4844 180.2881)" id="Fill-122" fill="#323231" stroke="none" />
      <path d="M0 11.669L0 7.132C0 3.209 3.209 0 7.132 0C11.055 0 14.265 3.209 14.265 7.132L14.265 11.669" transform="translate(148.7847 184.1924)" id="Fill-123" fill="#FFFFFF" stroke="none" />
      <path d="M16.265 12.669L14.265 12.669L14.265 8.132C14.265 4.751 11.514 2 8.133 2C4.751 2 2 4.751 2 8.132L2 12.669L0 12.669L0 8.132C0 3.648 3.648 0 8.133 0C12.617 0 16.265 3.648 16.265 8.132L16.265 12.669Z" transform="translate(147.7847 183.1924)" id="Fill-124" fill="#323231" stroke="none" />
      <path d="M37.8472 28.6425L18.8492 1.5405C18.0222 0.360496 16.3952 0.0744964 15.2142 0.902496L7.20717 6.5155L2.97017 0.471496C2.61917 -0.0285036 1.92417 -0.150504 1.42317 0.200496L0.472165 0.866496C-0.0278352 1.2175 -0.150835 1.9135 0.200165 2.4135L6.57417 11.5065C6.65417 11.6205 6.75517 11.7085 6.86517 11.7825L24.9972 37.6505C25.8252 38.8305 27.4522 39.1165 28.6332 38.2885L37.2082 32.2775C38.3892 31.4505 38.6752 29.8235 37.8472 28.6425" transform="translate(140.3574 188.8721)" id="Fill-125" fill="#FFFFFF" stroke="none" />
      <path d="M27.5097 40.7083C27.7207 40.7453 27.9327 40.7633 28.1427 40.7633C28.8767 40.7633 29.5927 40.5393 30.2067 40.1083L38.7817 34.0973C39.5717 33.5433 40.0987 32.7163 40.2657 31.7663C40.4327 30.8163 40.2197 29.8583 39.6657 29.0683L20.6687 1.96733C20.1157 1.17733 19.2877 0.651333 18.3377 0.484333C17.3887 0.317333 16.4307 0.530333 15.6407 1.08333L8.4517 6.12333L4.7887 0.897333C4.1217 -0.0536673 2.8027 -0.286667 1.8497 0.381333L0.898698 1.04833C0.437698 1.37133 0.129698 1.85533 0.0326976 2.41133C-0.0653024 2.96733 0.0586976 3.52733 0.381698 3.98833L6.7547 13.0803C6.8607 13.2323 6.9877 13.3673 7.1387 13.4893L25.1787 39.2243C25.7317 40.0143 26.5597 40.5413 27.5097 40.7083ZM2.9977 2.01933C3.0157 2.00633 3.0377 2.00033 3.0597 2.00033C3.0957 2.00033 3.1307 2.01633 3.1517 2.04633L7.9627 8.90933L16.7887 2.72133C17.1407 2.47433 17.5657 2.37733 17.9917 2.45433C18.4147 2.52833 18.7847 2.76333 19.0307 3.11533L38.0287 30.2173C38.2757 30.5693 38.3707 30.9963 38.2957 31.4193C38.2217 31.8433 37.9867 32.2123 37.6337 32.4593L29.0587 38.4703C28.7057 38.7173 28.2787 38.8123 27.8557 38.7383C27.4327 38.6643 27.0627 38.4293 26.8167 38.0763L8.6837 12.2083L8.5487 12.0373L8.3927 11.9333L2.0187 2.84033C1.9897 2.79733 2.0027 2.71633 2.0457 2.68633L2.9977 2.01933Z" transform="translate(139.3574 187.8721)" id="Fill-126" fill="#323231" fill-rule="evenodd" stroke="none" />
      <path d="M0 4.396L6.508 0" transform="translate(165.2729 214.3447)" id="Fill-127" fill="#FFFFFF" stroke="none" />
      <path d="M1.119 6.054L0 4.397L6.508 0L7.627 1.658L1.119 6.054Z" transform="translate(164.7139 213.5156)" id="Fill-128" fill="#323231" stroke="none" />
      <path d="M0 4.396L6.508 0" transform="translate(167.4854 217.8354)" id="Fill-129" fill="#FFFFFF" stroke="none" />
      <path d="M1.119 6.054L0 4.397L6.508 0L7.627 1.658L1.119 6.054Z" transform="translate(166.9263 217.0063)" id="Fill-130" fill="#323231" stroke="none" />
      <path d="M0 76.795L18.5 25.717C18.5 25.717 17.167 0 21.5 0C25.833 0 26.333 23 26.333 23" transform="translate(131.3828 195.8613)" id="Fill-131" fill="#FFFFFF" stroke="none" />
      <path d="M1.881 78.136L0 77.454L18.432 26.566C18.383 25.514 18.171 20.56 18.277 15.333C18.524 3.156 20.241 1.347 20.805 0.752C21.396 0.131 22.021 0 22.441 0C27.235 0 28.117 16.769 28.274 23.978L26.274 24.022C26.023 12.497 24.196 2 22.441 2C22.402 2 22.332 2.05 22.256 2.13C20.122 4.377 20.009 18.372 20.439 26.666L20.45 26.868L1.881 78.136Z" transform="translate(130.4424 194.8613)" id="Fill-132" fill="#323231" stroke="none" />
    </g>
  </g>
</svg>