<?xml version="1.0" encoding="utf-8"?>
<svg width="65px" height="65px" viewBox="0 0 65 65" version="1.1" xmlns:xlink="http://www.w3.org/1999/xlink" xmlns="http://www.w3.org/2000/svg">
  <desc>Created with Lunacy</desc>
  <g id="goal-(1)">
    <path d="M42.8851 21.0041C42.9429 20.7838 42.9839 20.5579 42.9839 20.32C42.9839 19.9492 42.9096 19.5896 42.7648 19.2546L34.5149 0L32.5819 0.799821L40.8339 20.0584C40.8682 20.1409 40.8871 20.2284 40.8871 20.32C40.8871 20.6972 40.5748 21.0041 40.1909 21.0041L39.9488 21.0041C39.6677 21.0041 39.4164 20.8391 39.3084 20.5861L31.3707 2.06042L29.4378 2.86024L37.2116 21.0041L26.2097 21.0041L26.2097 3.49054L24.1129 3.49054L24.1129 21.0041L22.0161 21.0041L22.0161 3.49054L19.9194 3.49054L19.9194 21.0041L8.91743 21.0041L16.6913 2.86024L14.7583 2.06042L6.82168 20.5861C6.71265 20.8391 6.4613 21.0041 6.18129 21.0041L5.93813 21.0041C5.5542 21.0041 5.24194 20.6972 5.24194 20.32C5.24194 20.2284 5.26088 20.1409 5.29773 20.0554L13.5471 0.800827L11.6142 0.00100613L3.36631 19.2515C3.21939 19.5896 3.14516 19.9492 3.14516 20.32C3.14516 20.5579 3.18611 20.7838 3.24396 21.0041L0 21.0041L0 23.0645L46.129 23.0645L46.129 21.0041L42.8851 21.0041Z" transform="translate(0 41.93549)" id="Path" fill="#323231" stroke="none" />
    <path d="M0 14.6774C0 6.57136 6.57136 0 14.6774 0C22.7835 0 29.3548 6.57136 29.3548 14.6774C29.3548 22.7835 22.7835 29.3548 14.6774 29.3548C6.57136 29.3548 0 22.7835 0 14.6774ZM21.8723 16.123L23.0645 15.7258L23.0645 13.629L21.8702 13.2297C21.6808 12.2776 21.3051 11.393 20.7855 10.6118L21.3481 9.48668L19.8661 8.00419L18.7409 8.56729C17.9608 8.04719 17.0752 7.67299 16.123 7.48256L15.7258 6.29032L13.629 6.29032L13.2297 7.4846C12.2776 7.67401 11.393 8.04975 10.6118 8.56934L9.48668 8.00675L8.00419 9.48872L8.56729 10.6139C8.04719 11.394 7.67299 12.2796 7.48256 13.2318L6.29032 13.629L6.29032 15.7258L7.4846 16.1251C7.67401 17.0772 8.04975 17.9618 8.56934 18.743L8.00675 19.8682L9.48872 21.3506L10.6139 20.7875C11.394 21.3076 12.2796 21.6819 13.2318 21.8723L13.629 23.0645L15.7258 23.0645L16.1251 21.8702C17.0772 21.6808 17.9618 21.3051 18.743 20.7855L19.8682 21.3481L21.3506 19.8661L20.7875 18.7409C21.3076 17.9608 21.6819 17.0752 21.8723 16.123Z" transform="translate(8.387207 8.387085)" id="Shape" fill="#FEC108" fill-rule="evenodd" stroke="none" />
    <path d="M0 23.0645C0 10.3267 10.3267 0 23.0645 0C35.8023 0 46.129 10.3267 46.129 23.0645C46.129 35.8023 35.8023 46.129 23.0645 46.129C10.3267 46.129 0 35.8023 0 23.0645ZM4.19355 23.0645C4.19355 33.4864 12.6426 41.9355 23.0645 41.9355C33.4864 41.9355 41.9355 33.4864 41.9355 23.0645C41.9355 12.6426 33.4864 4.19355 23.0645 4.19355C12.6426 4.19355 4.19355 12.6426 4.19355 23.0645Z" id="Shape" fill="#FEC108" fill-rule="evenodd" stroke="none" />
    <path d="M11.524 18.871L7.82487 18.871L7.36091 17.5144C6.69541 17.3342 6.05825 17.0762 5.45521 16.743L4.14153 17.3834L1.52519 14.8315L2.18177 13.5512C1.84115 12.9636 1.57662 12.3416 1.39188 11.6925L0 11.24L0 7.63101L1.39188 7.17951C1.57662 6.53041 1.84115 5.90895 2.18177 5.32077L1.52519 4.04049L4.14153 1.48863L5.45521 2.12902C6.0593 1.7968 6.69541 1.53879 7.36091 1.35758L7.82382 0L11.5229 0L11.9869 1.35656C12.6524 1.53675 13.2895 1.79475 13.8926 2.128L15.2062 1.4876L17.8226 4.03946L17.166 5.32077C17.2657 5.49226 17.3581 5.66631 17.4431 5.84138L15.5007 6.74029C15.3695 6.47154 15.2157 6.20637 15.043 5.95298L14.6966 5.44619L15.2073 4.4536L14.7827 4.03946L13.7629 4.53653L13.2444 4.19867C12.5427 3.74153 11.7691 3.42927 10.9456 3.26904L10.3336 3.14926L9.97357 2.09677L9.37315 2.09677L9.01416 3.14926L8.40219 3.26904C7.57872 3.42927 6.80615 3.74256 6.10339 4.19867L5.58484 4.53653L4.56507 4.03946L4.14048 4.4536L4.65115 5.44619L4.30475 5.95298C3.83607 6.6374 3.51697 7.39195 3.35164 8.19513L3.22988 8.79202L2.14975 9.14318L2.14975 9.72778L3.22988 10.079L3.35164 10.6758C3.51592 11.479 3.83607 12.2325 4.30475 12.918L4.65115 13.4248L4.14048 14.4174L4.56507 14.8315L5.58484 14.3344L6.10339 14.6723C6.8051 15.1294 7.57872 15.4417 8.40219 15.6019L9.01416 15.7217L9.3742 16.7742L9.97462 16.7742L10.3336 15.7217L10.9456 15.6019C11.7691 15.4417 12.5416 15.1284 13.2444 14.6723L13.7629 14.3344L14.7827 14.8315L15.2073 14.4174L14.6966 13.4248L15.043 12.918C15.2157 12.6646 15.3695 12.3994 15.5007 12.1307L17.4431 13.0296C17.3581 13.2047 17.2657 13.3787 17.166 13.5502L17.8226 14.8315L15.2062 17.3834L13.8926 16.743C13.2885 17.0752 12.6524 17.3332 11.9869 17.5144L11.524 18.871Z" transform="translate(13.62915 13.62903)" id="Path" fill="#323231" stroke="none" />
    <path d="M46.0237 13.629L54.5161 13.629L51.8729 18.871L54.5161 24.1129L46.0237 24.1129L41.7945 19.9194L12.0086 19.9194L13.3757 21.2749L11.8806 22.7574L7.96119 18.871L11.8806 14.9846L13.3757 16.467L12.0086 17.8226L29.4911 17.8226C28.9413 9.0623 21.5991 2.09677 12.6281 2.09677C8.49861 2.09677 4.51259 3.60537 1.4037 6.34612L0 4.77866C3.49402 1.69749 7.98029 0 12.6281 0C22.7643 0 31.0523 7.9059 31.6057 17.8226L41.7945 17.8226L46.0237 13.629ZM44.7847 17.8226L50.0371 17.8226L51.0944 15.7258L46.8993 15.7258L44.7847 17.8226ZM46.8993 22.0161L44.7847 19.9194L50.0371 19.9194L51.0944 22.0161L46.8993 22.0161Z" transform="translate(10.48389 4.193542)" id="Shape" fill="#323231" fill-rule="evenodd" stroke="none" />
    <path d="M19.0274 31.4516C8.53609 31.4516 0 22.9701 0 12.5459C0 7.92868 1.71155 3.472 4.81929 0L6.39871 1.39547C3.63525 4.48386 2.11415 8.44358 2.11415 12.5459C2.11415 21.8116 9.70208 29.351 19.0274 29.351C27.2259 29.351 34.2218 23.5311 35.6603 15.5122L37.7419 15.8815C36.1223 24.904 28.2525 31.4516 19.0274 31.4516L19.0274 31.4516Z" transform="translate(4.193604 10.48389)" id="Path" fill="#323231" stroke="none" />
    <path d="M0 0L2.09678 0L2.09678 2.09678L0 2.09678L0 0Z" transform="translate(60.8064 42.98389)" id="Path" fill="#323231" stroke="none" />
    <path d="M0 0L2.09678 0L2.09678 2.09678L0 2.09678L0 0Z" transform="translate(60.8064 48.22583)" id="Path" fill="#323231" stroke="none" />
    <path d="M0 0L2.09678 0L2.09678 2.09678L0 2.09678L0 0Z" transform="translate(60.8064 53.46777)" id="Path" fill="#323231" stroke="none" />
    <path d="M6.29032 2.09677L4.19355 2.09677L4.19355 0L2.09677 0L2.09677 2.09677L0 2.09677L0 4.19355L2.09677 4.19355L2.09677 6.29032L4.19355 6.29032L4.19355 4.19355L6.29032 4.19355L6.29032 2.09677Z" transform="translate(58.70972 58.70966)" id="Path" fill="#323231" stroke="none" />
    <path d="M0 0L2.09678 0L2.09678 2.09678L0 2.09678L0 0Z" transform="translate(52.41943 51.37097)" id="Path" fill="#323231" stroke="none" />
    <path d="M0 0L2.09678 0L2.09678 2.09678L0 2.09678L0 0Z" transform="translate(52.41943 46.12903)" id="Path" fill="#323231" stroke="none" />
    <path d="M0 0L2.09678 0L2.09678 2.09678L0 2.09678L0 0Z" transform="translate(52.41943 40.88708)" id="Path" fill="#323231" stroke="none" />
    <path d="M4.19355 0L2.09677 0L2.09677 2.09677L0 2.09677L0 4.19355L2.09677 4.19355L2.09677 6.29032L4.19355 6.29032L4.19355 4.19355L6.29032 4.19355L6.29032 2.09677L4.19355 2.09677L4.19355 0Z" transform="translate(50.32251 31.4516)" id="Path" fill="#323231" stroke="none" />
  </g>
</svg>