<?xml version="1.0" encoding="utf-8"?>
<svg width="65px" height="65px" viewBox="0 0 65 65" version="1.1" xmlns:xlink="http://www.w3.org/1999/xlink" xmlns="http://www.w3.org/2000/svg">
  <desc>Created with Lunacy</desc>
  <g id="honey-(1)">
    <path d="M23.2375 23.1224L6.23708 23.1224C3.4564 23.1224 1.15742 20.9478 1.00334 18.1707L0 0.116715L2.09268 0L3.09602 18.0555C3.18919 19.7202 4.56878 21.0256 6.23708 21.0256L23.2375 21.0256L23.2375 23.1224Z" transform="translate(2.972168 23.00659)" id="Path" fill="#323231" stroke="none" />
    <path d="M0 12.5806L0.701826 0L2.79451 0.116715L2.09268 12.6974L0 12.5806Z" transform="translate(39.13965 7.282349)" id="Path" fill="#323231" stroke="none" />
    <path d="M3.14516 24.1129C1.41133 24.1129 0 22.7016 0 20.9677L0 3.14516C0 1.41133 1.41133 0 3.14516 0L40.8871 0C42.6209 0 44.0323 1.41133 44.0323 3.14516L44.0323 5.24194C44.0323 6.97577 42.6209 8.3871 40.8871 8.3871L14.6774 8.3871L14.6774 13.629C14.6774 15.3629 13.2661 16.7742 11.5323 16.7742C9.79843 16.7742 8.3871 15.3629 8.3871 13.629L8.3871 9.43548C8.3871 8.85703 7.91717 8.3871 7.33871 8.3871C6.76025 8.3871 6.29032 8.85703 6.29032 9.43548L6.29032 20.9677C6.29032 22.7016 4.87899 24.1129 3.14516 24.1129Z" id="Path" fill="#FEC108" stroke="none" />
    <path d="M0 9.95968L19.9194 0L39.8387 9.95968L39.8387 37.4066L19.9194 47.3663L0 37.4066L0 9.95968ZM19.9194 41.5055L34.5968 34.1668L34.5968 13.199L19.9194 5.86032L5.24194 13.199L5.24194 34.1668L19.9194 41.5055Z" transform="translate(25.16113 16.70911)" id="Shape" fill="#FEC108" fill-rule="evenodd" stroke="none" />
    <path d="M7.99384 2.01538C8.45405 1.88331 8.9291 1.78963 9.43128 1.78963C9.93346 1.78963 10.4085 1.88331 10.8687 2.01538L12.8836 0L14.3661 1.48248L12.7996 3.04892C13.935 4.01131 14.6732 5.42981 14.6732 7.03157C14.6732 7.64841 14.556 8.254 14.3461 8.82683C15.0966 9.21536 15.8388 9.73956 16.5227 10.4235C18.9538 12.8535 19.587 16.0309 17.9612 17.6583C17.3531 18.2664 16.5268 18.5577 15.6034 18.5577C15.2824 18.5577 14.9481 18.5147 14.6082 18.4445C14.3021 21.0496 12.7326 23.3266 10.3425 24.5219L9.43128 24.978L8.51906 24.5209C6.12999 23.3256 4.55945 21.0486 4.25333 18.4445C3.91343 18.5147 3.57915 18.5587 3.25716 18.5587C2.3347 18.5587 1.50951 18.2664 0.900337 17.6583C-0.725482 16.0319 -0.0922517 12.8535 2.3388 10.4235C3.02271 9.73956 3.76497 9.21434 4.51543 8.82529C4.30657 8.25298 4.18934 7.64841 4.18934 7.03157C4.18934 5.42981 4.92752 4.01131 6.06293 3.04892L4.49649 1.48248L5.97897 0L7.99384 2.01538ZM6.52108 8.15571C7.64984 7.98986 8.68082 8.21766 9.43128 8.87904C10.1797 8.21766 11.2117 7.99088 12.3415 8.15571C12.4802 7.79687 12.5764 7.42164 12.5764 7.03156C12.5764 5.29773 11.1651 3.8864 9.43128 3.8864C7.69745 3.8864 6.28612 5.29773 6.28612 7.03156C6.28612 7.42164 6.38236 7.79687 6.52108 8.15571ZM2.38282 16.1768C1.71427 15.5077 2.18676 13.5389 3.82128 11.907C4.97768 10.7496 6.30199 10.1757 7.2137 10.1757C7.58944 10.1757 7.89556 10.2735 8.09162 10.4685C8.76017 11.1371 8.28768 13.1059 6.65316 14.7383C5.02171 16.3718 3.05393 16.8479 2.38282 16.1768ZM16.4797 16.1768C15.8107 16.8428 13.8429 16.3718 12.2094 14.7383C10.5759 13.1048 10.1024 11.136 10.7709 10.4685C10.967 10.2735 11.2731 10.1757 11.6499 10.1757C12.5616 10.1757 13.8859 10.7506 15.0413 11.907C16.6748 13.5389 17.1473 15.5077 16.4797 16.1768ZM6.29533 17.6485C6.34396 19.7709 7.53057 21.6716 9.43128 22.634C11.332 21.6716 12.5186 19.7719 12.5672 17.6485C11.9314 17.2784 11.3069 16.8029 10.7259 16.2208C10.2037 15.6987 9.78245 15.1402 9.43128 14.572C9.08011 15.1402 8.65881 15.6987 8.13667 16.2208C7.55463 16.8029 6.93112 17.28 6.29533 17.6485Z" transform="translate(35.64941 28.11853)" id="Shape" fill="#323231" fill-rule="evenodd" stroke="none" />
    <path d="M0 7.8629L15.7258 0L31.4516 7.8629L31.4516 30.1263L15.7258 37.9892L0 30.1263L0 7.8629ZM15.7258 35.6452L29.3548 28.8306L29.3548 9.15854L15.7258 2.34403L2.09677 9.15854L2.09677 28.8306L15.7258 35.6452Z" transform="translate(29.35498 21.39771)" id="Shape" fill="#323231" fill-rule="evenodd" stroke="none" />
  </g>
</svg>