<?xml version="1.0" encoding="utf-8"?>
<svg width="65px" height="65px" viewBox="0 0 65 65" version="1.1" xmlns:xlink="http://www.w3.org/1999/xlink" xmlns="http://www.w3.org/2000/svg">
  <desc>Created with Lunacy</desc>
  <g id="report">
    <g id="Group" transform="translate(4.406738 4.406738)">
      <path d="M0 0L14.5669 0L14.5669 4.20181L0 4.20181L0 0Z" transform="translate(0 40.96768)" id="Path" fill="#F0BC5E" stroke="none" />
      <path d="M20.8098 0L20.8098 13.6559L0 13.6559L0 22.0595L14.5669 22.0595L14.5669 35.7154L37.4576 35.7154L37.4576 0L20.8098 0Z" id="Path" fill="#F0BC5E" stroke="none" />
      <path d="M6.24294 12.6054C2.79987 12.6054 0 9.77876 0 6.30272C0 2.82668 2.79987 0 6.24294 0C9.686 0 12.4859 2.82668 12.4859 6.30272C12.4859 9.77876 9.686 12.6054 6.24294 12.6054Z" transform="translate(0 25.21088)" id="Path" fill="#FEC108" stroke="none" />
    </g>
    <path d="M63.6265 28.6305C64.5127 29.5151 65.001 30.6925 65 31.9446C65 33.2842 64.505 34.4775 63.6076 35.3749L61.2405 37.7419L61.4837 37.9851C62.3862 38.8876 62.9032 40.1356 62.9032 41.4113C62.9032 42.687 62.3862 43.935 61.4837 44.8375L53.9018 52.4194C53.6218 52.7004 53.4677 53.0715 53.4677 53.4677C53.4677 53.864 53.6218 54.2351 53.9018 54.5161L55.2574 55.8717L53.7749 57.3541L52.4194 55.9986C51.7431 55.3234 51.371 54.424 51.371 53.4677C51.371 52.5115 51.7431 51.6131 52.4194 50.9369L60.0012 43.355C60.5131 42.8426 60.8064 42.1346 60.8064 41.4113C60.8064 40.688 60.5131 39.98 60.0012 39.4676L59.7581 39.2244L46.129 52.8535L46.129 65L0 65L0 11.0982L11.0982 0L46.129 0L46.129 39.4026L56.9282 28.6023C57.7934 27.7352 58.9457 27.2581 60.1722 27.2581L60.3043 27.2581C61.5605 27.2581 62.7409 27.7454 63.6265 28.6305ZM2.09677 62.9032L44.0323 62.9032L44.0323 54.9502L40.388 58.5955L32.6469 60.8064L30.1852 60.8064C29.274 60.8064 28.4544 60.3002 28.0464 59.4857L26.9238 57.24L25.3963 59.6838C24.9581 60.3872 24.1989 60.8064 23.3686 60.8064L22.0161 60.8064C20.9176 60.8064 19.9634 60.0621 19.6982 58.9958L19.1571 56.8351C19.0911 56.573 18.6508 56.573 18.5858 56.8351L18.0447 58.9958C17.7786 60.0621 16.8244 60.8064 15.7258 60.8064L12.5806 60.8064L12.5806 58.7097L15.7258 58.7097C15.8609 58.7097 15.9787 58.6175 16.0109 58.4875L16.552 56.3267C16.8182 55.2604 17.7724 54.5161 18.871 54.5161C19.9695 54.5161 20.9237 55.2604 21.1899 56.3257L21.731 58.4865C21.7632 58.6175 21.881 58.7097 22.0161 58.7097L23.3686 58.7097C23.4694 58.7097 23.5657 58.6575 23.6179 58.5725L25.8247 55.0413L24.9954 53.3838C24.418 52.2294 24.1129 50.9358 24.1129 49.6453L24.1129 49.2742C24.1129 47.5404 25.5242 46.129 27.2581 46.129C28.9919 46.129 30.4032 47.5404 30.4032 49.2742C30.4032 50.8427 29.964 52.3743 29.1327 53.7058L28.2266 55.1565L29.922 58.5474C29.9722 58.6467 30.073 58.7097 30.1852 58.7097L31.7096 58.7097L33.6625 51.8711L44.0323 41.5004L44.0323 2.09677L12.5806 2.09677L12.5806 12.5806L2.09677 12.5806L2.09677 62.9032ZM10.4839 3.57926L10.4839 10.4839L3.57926 10.4839L10.4839 3.57926ZM59.7581 36.2595L62.1251 33.8924C62.6263 33.3912 62.9032 32.7242 62.9032 32.0157C62.9032 31.2525 62.634 30.6024 62.1461 30.115C61.6557 29.6241 61.0015 29.3548 60.3043 29.3548L60.1722 29.3548C59.5062 29.3548 58.8807 29.6139 58.4117 30.0843L55.9976 32.499L59.7581 36.2595ZM39.8387 56.1788L36.0793 52.4194L54.5151 33.9815L58.2756 37.7419L39.8387 56.1788ZM27.127 52.9584L27.3553 52.5934C27.9783 51.5972 28.3064 50.4495 28.3064 49.2742C28.3064 48.6957 27.8365 48.2258 27.2581 48.2258C26.6796 48.2258 26.2097 48.6957 26.2097 49.2742L26.2097 49.6453C26.2097 50.6118 26.438 51.5808 26.8711 52.4465L27.127 52.9584ZM35.1158 54.4209L37.8372 57.1422L34.0265 58.2316L35.1158 54.4209Z" id="Shape" fill="#323231" fill-rule="evenodd" stroke="none" />
    <path d="M0 0L2.20339 0L2.20339 2.20339L0 2.20339L0 0Z" transform="translate(8.813477 58.38989)" id="Path" fill="#000000" stroke="none" />
    <path d="M0 0L2.20339 0L2.20339 2.20339L0 2.20339L0 0Z" transform="translate(39.66113 4.406738)" id="Path" fill="#323231" stroke="none" />
    <path d="M0 0L13.2203 0L13.2203 2.20339L0 2.20339L0 0Z" transform="translate(25.33887 4.406738)" id="Path" fill="#323231" stroke="none" />
    <path d="M0 0L2.20339 0L2.20339 2.20339L0 2.20339L0 0Z" transform="translate(39.66113 8.813599)" id="Path" fill="#323231" stroke="none" />
    <path d="M0 0L13.2203 0L13.2203 2.20339L0 2.20339L0 0Z" transform="translate(25.33887 8.813599)" id="Path" fill="#323231" stroke="none" />
    <path d="M0 0L2.20339 0L2.20339 2.20339L0 2.20339L0 0Z" transform="translate(39.66113 12.11865)" id="Path" fill="#323231" stroke="none" />
    <path d="M0 0L13.2203 0L13.2203 2.20339L0 2.20339L0 0Z" transform="translate(25.33887 12.11865)" id="Path" fill="#323231" stroke="none" />
    <path d="M0 0L37.4576 0L37.4576 2.20339L0 2.20339L0 0Z" transform="translate(4.406738 16.52539)" id="Path" fill="#323231" stroke="none" />
    <path d="M0 0L37.4576 0L37.4576 2.20339L0 2.20339L0 0Z" transform="translate(4.406738 20.93225)" id="Path" fill="#323231" stroke="none" />
    <path d="M0 0L37.4576 0L37.4576 2.20339L0 2.20339L0 0Z" transform="translate(4.406738 25.33899)" id="Path" fill="#323231" stroke="none" />
    <path d="M0 0L2.20339 0L2.20339 2.20339L0 2.20339L0 0Z" transform="translate(18.72876 30.84741)" id="Path" fill="#323231" stroke="none" />
    <path d="M0 0L18.7288 0L18.7288 2.20339L0 2.20339L0 0Z" transform="translate(23.1355 30.84741)" id="Path" fill="#323231" stroke="none" />
    <path d="M0 0L23.1356 0L23.1356 2.20339L0 2.20339L0 0Z" transform="translate(18.72876 34.15259)" id="Path" fill="#323231" stroke="none" />
    <path d="M0 0L23.1356 0L23.1356 2.20339L0 2.20339L0 0Z" transform="translate(18.72876 38.55933)" id="Path" fill="#323231" stroke="none" />
    <path d="M0 0L14.322 0L14.322 2.20339L0 2.20339L0 0Z" transform="translate(4.406738 44.06775)" id="Path" fill="#323231" stroke="none" />
    <path d="M0 0L14.322 0L14.322 2.20339L0 2.20339L0 0Z" transform="translate(4.406738 48.47461)" id="Path" fill="#323231" stroke="none" />
  </g>
</svg>