<?xml version="1.0" encoding="utf-8"?>
<svg width="65px" height="65px" viewBox="0 0 65 65" version="1.1" xmlns:xlink="http://www.w3.org/1999/xlink" xmlns="http://www.w3.org/2000/svg">
  <desc>Created with Lunacy</desc>
  <g id="statistics">
    <g id="Group" transform="translate(0 10.5)">
      <path d="M6.29032 13.9228L6.29032 0L0 0L0 10.8275C2.35887 11.3428 4.50581 12.4227 6.29032 13.9228Z" transform="translate(41.93548 13.62593)" id="Path" fill="#FEC108" stroke="none" />
      <path d="M5.24193 5.24074C5.59617 5.24074 5.94222 5.26889 6.29032 5.29294L6.29032 0L0 0L0 6.22184C1.63043 5.59695 3.39241 5.24074 5.24193 5.24074L5.24193 5.24074Z" transform="translate(33.54839 18.86667)" id="Path" fill="#FEC108" stroke="none" />
      <path d="M3.09909 31.4444L6.29032 31.4444L6.29032 0L0 0L0 21.3381C1.96368 23.8336 3.14516 26.9739 3.14516 30.3963C3.14516 30.7494 3.12417 31.0974 3.09909 31.4444Z" transform="translate(50.32258 8.385185)" id="Path" fill="#FEC108" stroke="none" />
      <path d="M0 0L6.29032 0L6.29032 39.8296L0 39.8296L0 0Z" transform="translate(58.70968 0)" id="Path" fill="#FEC108" stroke="none" />
      <path d="M30.8865 12.804C26.8168 15.4131 24.1129 19.9639 24.1129 25.1556C24.1129 26.6536 24.3402 28.0978 24.7553 29.4592L24.1452 30.3124L23.4607 29.8221C22.7625 30.1793 22.032 30.4823 21.2759 30.7244L20.8075 33.5407L12.7398 33.5407L12.2715 30.7233C11.5154 30.4813 10.7849 30.1793 10.0856 29.821L7.76411 31.4782L2.06196 25.7769L3.71952 23.4564C3.36221 22.7573 3.05916 22.027 2.81703 21.2711L0 20.8028L0 12.7369L2.81805 12.2687C3.06018 11.5127 3.36221 10.7824 3.72055 10.0833L2.06299 7.76234L7.76564 2.06149L10.0866 3.71867C10.7859 3.36144 11.5164 3.05846 12.2725 2.81639L12.7409 0L20.8085 0L21.278 2.81639C22.034 3.05846 22.7645 3.36042 23.4638 3.71867L25.7853 2.06149L31.4874 7.76234L29.8299 10.0833C30.2701 10.9447 30.6213 11.8587 30.8865 12.804ZM11.5323 16.7704C11.5323 19.6646 13.8794 22.0111 16.7742 22.0111C19.669 22.0111 22.0161 19.6646 22.0161 16.7704C22.0161 13.8762 19.669 11.5296 16.7742 11.5296C13.8794 11.5296 11.5323 13.8762 11.5323 16.7704Z" transform="translate(0 13.62593)" id="Shape" fill="#FEC108" fill-rule="evenodd" stroke="none" />
    </g>
    <path d="M8.77875 7.50715e-15L7.01629 1.16642C7.47703 1.86287 7.72004 2.66662 7.72004 3.49411C7.72004 5.82489 5.82447 7.72026 3.49344 7.72026C2.66587 7.72026 1.86203 7.47727 1.16654 7.01659L0 8.77886C1.0422 9.4686 2.25002 9.83333 3.49344 9.83333C6.98998 9.83333 9.83333 6.99028 9.83333 3.49411C9.83333 2.25082 9.46856 1.04312 8.77875 0L8.77875 7.50715e-15Z" transform="translate(13.33325 37.33337)" id="Path" fill="#323231" stroke="none" />
    <path d="M6.33989 2.11308C7.16746 2.11308 7.97233 2.35606 8.66576 2.81571L9.83333 1.05447C8.79216 0.364733 7.58486 0 6.33989 0C2.84335 0 0 2.84306 0 6.33923C0 7.58252 0.364771 8.79021 1.05458 9.83333L2.81704 8.66691C2.35631 7.97046 2.1133 7.16671 2.1133 6.33923C2.1133 4.00845 4.00887 2.11308 6.33989 2.11308Z" transform="translate(10.5 34.5)" id="Path" fill="#323231" stroke="none" />
    <path d="M20.739 8.45636C23.6176 5.21046 27.7983 3.15152 32.4601 3.15152C41.1207 3.15152 48.1667 10.2204 48.1667 18.9091C48.1667 27.5978 41.1207 34.6667 32.4601 34.6667C23.7996 34.6667 16.7536 27.5978 16.7536 18.9091C16.7536 18.8999 16.7546 18.8901 16.7546 18.8809C14.958 20.234 12.758 21.0101 10.471 21.0101C4.69713 21.0101 0 16.2977 0 10.5051C0 4.7124 4.69713 0 10.471 0C15.5455 0 19.786 3.64086 20.739 8.45636ZM10.471 18.9091C5.85211 18.9091 2.0942 15.139 2.0942 10.5051C2.0942 5.87113 5.85211 2.10101 10.471 2.10101C15.0899 2.10101 18.8478 5.87113 18.8478 10.5051C18.8478 10.7143 18.8361 10.919 18.8218 11.1237C18.0334 12.5096 17.4428 14.0202 17.1013 15.6263C15.5199 17.6821 13.0606 18.9091 10.471 18.9091ZM18.8478 18.9091C18.8478 26.4391 24.9546 32.5657 32.4601 32.5657C39.9657 32.5657 46.0725 26.4391 46.0725 18.9091C46.0725 11.3791 39.9657 5.25253 32.4601 5.25253C24.9546 5.25253 18.8478 11.3791 18.8478 18.9091Z" transform="translate(6.333252 30.33337)" id="Shape" fill="#323231" fill-rule="evenodd" stroke="none" />
    <path d="M0 0L0 6.33333L4.16667 6.33333L4.16667 4.22222L2.08333 4.22222L2.08333 0L0 0Z" transform="translate(37.83325 44)" id="Path" fill="#323231" stroke="none" />
    <path d="M7.29904 1.49011e-14C4.64536 1.49011e-14 2.05311 0.924668 0 2.60453L1.32966 4.22808C2.73561 3.0766 4.45438 2.36543 6.25047 2.16319L6.25047 4.19429L8.34762 4.19429L8.34762 2.1591C12.715 2.64447 16.1889 6.1194 16.6742 10.4857L14.639 10.4857L14.639 12.5829L16.6701 12.5829C16.4679 14.38 15.7567 16.0977 14.6053 17.5047L16.2278 18.8333C17.9076 16.7802 18.8333 14.188 18.8333 11.5343C18.8333 5.17476 13.6586 0 7.29904 0L7.29904 1.49011e-14Z" transform="translate(31.5 37.66663)" id="Path" fill="#323231" stroke="none" />
    <path d="M12.5829 16.6701L12.5829 14.639L10.4857 14.639L10.4857 16.6742C6.11838 16.1889 2.64447 12.7139 2.1591 8.34762L4.19429 8.34762L4.19429 6.25047L2.16319 6.25047C2.36543 4.45336 3.0766 2.73561 4.22808 1.32863L2.60556 0C0.925692 2.05311 0 4.64536 0 7.29904C0 13.6586 5.17476 18.8333 11.5343 18.8333C14.188 18.8333 16.7802 17.9087 18.8333 16.2288L17.5037 14.6053C16.0977 15.7567 14.38 16.4679 12.5829 16.6701L12.5829 16.6701Z" transform="translate(27.33325 42)" id="Path" fill="#323231" stroke="none" />
    <path d="M58.7097 0L58.7097 2.09333L60.9626 2.09333L53.5456 8.01763L50.3226 4.79995L45.3796 9.73482C44.9696 9.53806 44.5165 9.42 44.0323 9.42C42.2984 9.42 40.8871 10.829 40.8871 12.56C40.8871 13.1012 41.0381 13.6036 41.2802 14.0482L35.8003 20.1274C35.4291 19.9735 35.0237 19.8867 34.5968 19.8867C34.5768 19.8867 34.5589 19.8918 34.5389 19.8928L30.3234 8.66873C31.0073 8.09276 31.4516 7.24183 31.4516 6.28C31.4516 4.54901 30.0403 3.14 28.3065 3.14C26.5726 3.14 25.1613 4.54901 25.1613 6.28C25.1613 6.50589 25.1874 6.72565 25.2335 6.93928L16.639 12.2186C16.1 11.7842 15.4228 11.5133 14.6774 11.5133C13.3127 11.5133 12.1593 12.3913 11.7252 13.6067L6.09733 13.6067C5.66324 12.3913 4.50991 11.5133 3.14516 11.5133C1.41133 11.5133 0 12.9223 0 14.6533C0 16.3843 1.41133 17.7933 3.14516 17.7933C4.50991 17.7933 5.66324 16.9153 6.09733 15.7L11.7263 15.7C12.1604 16.9153 13.3137 17.7933 14.6784 17.7933C16.4123 17.7933 17.8236 16.3843 17.8236 14.6533C17.8236 14.4274 17.7975 14.2077 17.7514 13.9941L26.3458 8.71473C26.8839 9.14913 27.5611 9.42 28.3065 9.42C28.3264 9.42 28.3443 9.41489 28.3643 9.41387L32.5799 20.6369C31.8959 21.2139 31.4516 22.0648 31.4516 23.0267C31.4516 24.7577 32.8629 26.1667 34.5968 26.1667C36.3306 26.1667 37.7419 24.7577 37.7419 23.0267C37.7419 22.4854 37.5919 21.9831 37.3488 21.5384L42.8288 15.4593C43.1999 15.6131 43.6053 15.7 44.0323 15.7C45.7661 15.7 47.1774 14.291 47.1774 12.56C47.1774 12.0765 47.0592 11.6242 46.8621 11.2149L50.3226 7.76005L53.3899 10.8224L62.9032 3.22484L62.9032 6.28L65 6.28L65 0L58.7097 0ZM28.3065 5.23333C27.728 5.23333 27.2581 5.70352 27.2581 6.28C27.2581 6.85648 27.728 7.32667 28.3065 7.32667C28.8849 7.32667 29.3548 6.85648 29.3548 6.28C29.3548 5.70352 28.8849 5.23333 28.3065 5.23333ZM42.9839 12.56C42.9839 13.1365 43.4538 13.6067 44.0323 13.6067C44.6107 13.6067 45.0806 13.1365 45.0806 12.56C45.0806 11.9835 44.6107 11.5133 44.0323 11.5133C43.4538 11.5133 42.9839 11.9835 42.9839 12.56ZM2.09677 14.6533C2.09677 15.2298 2.56671 15.7 3.14516 15.7C3.72362 15.7 4.19355 15.2298 4.19355 14.6533C4.19355 14.0768 3.72362 13.6067 3.14516 13.6067C2.56671 13.6067 2.09677 14.0768 2.09677 14.6533ZM14.6774 15.7C14.099 15.7 13.629 15.2298 13.629 14.6533C13.629 14.0768 14.099 13.6067 14.6774 13.6067C15.2559 13.6067 15.7258 14.0768 15.7258 14.6533C15.7258 15.2298 15.2559 15.7 14.6774 15.7ZM34.5968 24.0733C34.0183 24.0733 33.5484 23.6032 33.5484 23.0267C33.5484 22.4502 34.0183 21.98 34.5968 21.98C35.1752 21.98 35.6452 22.4502 35.6452 23.0267C35.6452 23.6032 35.1752 24.0733 34.5968 24.0733Z" id="Shape" fill="#323231" fill-rule="evenodd" stroke="none" />
  </g>
</svg>