<?xml version="1.0" encoding="utf-8"?>
<svg width="65px" height="65px" viewBox="0 0 65 65" version="1.1" xmlns:xlink="http://www.w3.org/1999/xlink" xmlns="http://www.w3.org/2000/svg">
  <desc>Created with Lunacy</desc>
  <g id="swimming-pool-(1)">
    <path d="M4.19355 0L0 13.629L8.3871 13.629L4.19355 0Z" transform="translate(46.12891 3.145142)" id="Path" fill="#FEC108" stroke="none" />
    <path d="M4.19355 0L0 13.629L8.3871 13.629L4.19355 0Z" transform="translate(10.48389 3.145142)" id="Path" fill="#FEC108" stroke="none" />
    <path d="M59.5767 3.14516C56.8645 3.14516 56.8645 1.04839 54.1534 1.04839C51.4433 1.04839 51.4433 3.14516 48.7332 3.14516C46.0252 3.14516 46.0252 1.04839 43.3183 1.04839C41.4721 1.04839 40.8829 2.02129 39.8387 2.64194L39.8387 0L27.2581 0L27.2581 3.13573C27.1931 3.13782 27.1344 3.14516 27.0673 3.14516C24.3593 3.14516 24.3593 1.04839 21.6502 1.04839C18.9433 1.04839 18.9433 3.14516 16.2364 3.14516C13.5305 3.14516 13.5305 1.04839 10.8246 1.04839C8.11766 1.04839 8.11766 3.14516 5.40968 3.14516C2.70484 3.14516 2.70484 1.04839 0 1.04839L0 18.871L65 18.871L65 1.04839C62.2878 1.04839 62.2878 3.14516 59.5767 3.14516Z" transform="translate(0 46.12903)" id="Path" fill="#FEC108" stroke="none" />
    <g id="Group">
      <path d="M59.5767 2.09678C58.5786 2.09678 58.1289 1.74871 57.5051 1.2675C56.7754 0.70242 55.8665 0 54.1523 0C52.4382 0 51.5303 0.703468 50.8006 1.2675C50.179 1.74871 49.7302 2.09678 48.7332 2.09678C47.7383 2.09678 47.2885 1.74871 46.6669 1.2675C45.9372 0.703468 45.0303 0 43.3173 0C41.6042 0 40.6963 0.703468 39.9666 1.2675C39.3449 1.74871 38.8962 2.09678 37.8992 2.09678C36.9043 2.09678 36.4545 1.74871 35.8328 1.2675C35.1031 0.703468 34.1963 0 32.4832 0C30.7702 0 29.8623 0.703468 29.1326 1.2675C28.5109 1.74871 28.0622 2.09678 27.0662 2.09678C26.0702 2.09678 25.6215 1.74871 24.9998 1.2675C24.2702 0.703468 23.3633 0 21.6502 0C19.9372 0 19.0293 0.703468 18.3006 1.26855C17.679 1.74871 17.2302 2.09678 16.2353 2.09678C15.2415 2.09678 14.7938 1.74976 14.1721 1.26855C13.4435 0.703468 12.5366 0 10.8246 0C9.11153 0 8.20363 0.703468 7.475 1.26855C6.85331 1.74871 6.4046 2.09678 5.40968 2.09678C4.41581 2.09678 3.9671 1.74976 3.34645 1.26855C2.61782 0.703468 1.71097 0 0 0L0 2.09678C0.993871 2.09678 1.44258 2.44379 2.06323 2.925C2.79185 3.49008 3.69871 4.19355 5.40968 4.19355C7.12169 4.19355 8.0296 3.49008 8.75823 2.92605C9.37992 2.44484 9.82968 2.09678 10.8246 2.09678C11.8185 2.09678 12.2672 2.44484 12.8889 2.92605C13.6175 3.49008 14.5244 4.19355 16.2353 4.19355C17.9473 4.19355 18.8552 3.49008 19.5839 2.92605C20.2056 2.44484 20.6553 2.09678 21.6502 2.09678C22.6452 2.09678 23.0949 2.44484 23.7166 2.92605C24.4463 3.49008 25.3542 4.19355 27.0662 4.19355C28.7782 4.19355 29.6861 3.49008 30.4158 2.92605C31.0375 2.44484 31.4873 2.09678 32.4832 2.09678C33.4781 2.09678 33.9279 2.44484 34.5496 2.92605C35.2793 3.49008 36.1872 4.19355 37.8992 4.19355C39.6112 4.19355 40.5202 3.49008 41.2498 2.92605C41.8715 2.44484 42.3213 2.09678 43.3173 2.09678C44.3122 2.09678 44.7619 2.44484 45.3836 2.92605C46.1133 3.49008 47.0212 4.19355 48.7332 4.19355C50.4452 4.19355 51.3542 3.49113 52.0839 2.92605C52.7056 2.44484 53.1553 2.09678 54.1523 2.09678C55.1504 2.09678 55.6002 2.44484 56.2239 2.92605C56.9536 3.49113 57.8626 4.19355 59.5767 4.19355C61.2908 4.19355 62.1987 3.49113 62.9284 2.92605C63.5522 2.44484 64.0019 2.09678 65 2.09678L65 0C63.2859 0 62.3769 0.70242 61.6473 1.2675C61.0235 1.74871 60.5737 2.09678 59.5767 2.09678Z" transform="translate(0 53.46774)" id="Path" fill="#323231" stroke="none" />
      <path d="M59.5767 2.09678C58.5786 2.09678 58.1289 1.74871 57.5051 1.2675C56.7754 0.70242 55.8665 0 54.1523 0C52.4382 0 51.5303 0.703468 50.8006 1.2675C50.179 1.74871 49.7302 2.09678 48.7332 2.09678C47.7383 2.09678 47.2885 1.74871 46.6669 1.2675C45.9372 0.703468 45.0303 0 43.3173 0C41.6042 0 40.6963 0.703468 39.9666 1.2675C39.3449 1.74871 38.8962 2.09678 37.8992 2.09678C36.9043 2.09678 36.4545 1.74871 35.8328 1.2675C35.1031 0.703468 34.1963 0 32.4832 0C30.7702 0 29.8623 0.703468 29.1326 1.2675C28.5109 1.74871 28.0622 2.09678 27.0662 2.09678C26.0702 2.09678 25.6215 1.74871 24.9998 1.2675C24.2702 0.703468 23.3633 0 21.6502 0C19.9372 0 19.0293 0.703468 18.3006 1.26855C17.679 1.74871 17.2302 2.09678 16.2353 2.09678C15.2415 2.09678 14.7938 1.74976 14.1721 1.26855C13.4435 0.703468 12.5366 0 10.8246 0C9.11153 0 8.20363 0.703468 7.475 1.26855C6.85331 1.74871 6.4046 2.09678 5.40968 2.09678C4.41581 2.09678 3.9671 1.74976 3.34645 1.26855C2.61782 0.703468 1.71097 0 0 0L0 2.09678C0.993871 2.09678 1.44258 2.44379 2.06323 2.925C2.79185 3.49008 3.69871 4.19355 5.40968 4.19355C7.12169 4.19355 8.0296 3.49008 8.75823 2.92605C9.37992 2.44484 9.82968 2.09678 10.8246 2.09678C11.8185 2.09678 12.2672 2.44484 12.8889 2.92605C13.6175 3.49008 14.5244 4.19355 16.2353 4.19355C17.9473 4.19355 18.8552 3.49008 19.5839 2.92605C20.2056 2.44484 20.6553 2.09678 21.6502 2.09678C22.6452 2.09678 23.0949 2.44484 23.7166 2.92605C24.4463 3.49008 25.3542 4.19355 27.0662 4.19355C28.7782 4.19355 29.6861 3.49008 30.4158 2.92605C31.0375 2.44484 31.4873 2.09678 32.4832 2.09678C33.4781 2.09678 33.9279 2.44484 34.5496 2.92605C35.2793 3.49008 36.1872 4.19355 37.8992 4.19355C39.6112 4.19355 40.5202 3.49008 41.2498 2.92605C41.8715 2.44484 42.3213 2.09678 43.3173 2.09678C44.3122 2.09678 44.7619 2.44484 45.3836 2.92605C46.1133 3.49008 47.0212 4.19355 48.7332 4.19355C50.4452 4.19355 51.3542 3.49113 52.0839 2.92605C52.7056 2.44484 53.1553 2.09678 54.1523 2.09678C55.1504 2.09678 55.6002 2.44484 56.2239 2.92605C56.9536 3.49113 57.8626 4.19355 59.5767 4.19355C61.2908 4.19355 62.1987 3.49113 62.9284 2.92605C63.5522 2.44484 64.0019 2.09678 65 2.09678L65 0C63.2859 0 62.3769 0.70242 61.6473 1.2675C61.0235 1.74871 60.5737 2.09678 59.5767 2.09678Z" transform="translate(0 60.80645)" id="Path" fill="#323231" stroke="none" />
      <path d="M58.7097 17.8226L58.7097 22.0161L53.4677 22.0161L53.4677 36.6936L65 36.6936L65 42.9839L40.8871 42.9839L40.8871 46.7539C41.4826 46.4069 42.2406 46.129 43.3173 46.129C45.0303 46.129 45.9372 46.8325 46.6669 47.3965C47.2885 47.8777 47.7383 48.2258 48.7332 48.2258C49.7302 48.2258 50.179 47.8777 50.8006 47.3965C51.5303 46.8325 52.4382 46.129 54.1523 46.129C55.8665 46.129 56.7754 46.8315 57.5051 47.3965C58.1289 47.8777 58.5786 48.2258 59.5767 48.2258C60.5737 48.2258 61.0235 47.8777 61.6473 47.3965C62.3769 46.8315 63.2859 46.129 65 46.129L65 48.2258C64.0019 48.2258 63.5522 48.5739 62.9284 49.0551C62.1987 49.6202 61.2908 50.3226 59.5767 50.3226C57.8626 50.3226 56.9536 49.6202 56.2239 49.0551C55.6002 48.5739 55.1504 48.2258 54.1523 48.2258C53.1553 48.2258 52.7056 48.5739 52.0839 49.0551C51.3542 49.6202 50.4452 50.3226 48.7332 50.3226C47.0212 50.3226 46.1133 49.6191 45.3836 49.0551C44.7619 48.5739 44.3122 48.2258 43.3173 48.2258C42.3213 48.2258 41.8715 48.5739 41.2509 49.0551C41.1345 49.1452 41.0056 49.2249 40.8871 49.3119L40.8871 50.3226C40.8871 52.0566 39.476 53.4677 37.7419 53.4677L37.7419 51.371C38.3206 51.371 38.7903 50.9013 38.7903 50.3226L38.7903 47.1774L28.3065 47.1774L28.3065 50.3226C28.3065 52.0566 26.8953 53.4677 25.1613 53.4677L25.1613 51.371C25.74 51.371 26.2097 50.9013 26.2097 50.3226L26.2097 50.2502C25.0355 50.0626 24.3131 49.5153 23.7166 49.0551C23.0949 48.5739 22.6452 48.2258 21.6502 48.2258C20.6553 48.2258 20.2056 48.5739 19.5839 49.0551C18.8552 49.6191 17.9473 50.3226 16.2353 50.3226C14.5244 50.3226 13.6175 49.6191 12.8889 49.0551C12.2672 48.5739 11.8185 48.2258 10.8246 48.2258C9.82968 48.2258 9.37992 48.5739 8.75823 49.0551C8.0296 49.6191 7.12169 50.3226 5.40968 50.3226C3.69871 50.3226 2.79185 49.6191 2.06323 49.054C1.44258 48.5728 0.993871 48.2258 0 48.2258L0 46.129C1.71097 46.129 2.61782 46.8325 3.34645 47.3976C3.9671 47.8788 4.41581 48.2258 5.40968 48.2258C6.4046 48.2258 6.85331 47.8777 7.475 47.3976C8.20363 46.8325 9.11153 46.129 10.8246 46.129C12.5366 46.129 13.4435 46.8325 14.1721 47.3976C14.7938 47.8788 15.2415 48.2258 16.2353 48.2258C17.2302 48.2258 17.679 47.8777 18.3006 47.3976C19.0293 46.8325 19.9372 46.129 21.6502 46.129C23.3633 46.129 24.2702 46.8325 25.0009 47.3965C25.4066 47.711 25.7515 47.9564 26.2097 48.0969L26.2097 42.9839L0 42.9839L0 36.6936L11.5323 36.6936L11.5323 22.0161L6.29032 22.0161L6.29032 17.8226L0 17.8226L0 14.191L13.629 2.65871L13.629 0L15.7258 0L15.7258 2.65871L29.3548 14.191L29.3548 17.8226L23.0645 17.8226L23.0645 22.0161L17.8226 22.0161L17.8226 36.6936L22.0161 36.6936L22.0161 30.4032C22.0161 28.6692 23.4273 27.2581 25.1613 27.2581C26.8953 27.2581 28.3065 28.6692 28.3065 30.4032L28.3065 36.6936L34.5968 36.6936L34.5968 30.4032C34.5968 28.6692 36.0079 27.2581 37.7419 27.2581C39.476 27.2581 40.8871 28.6692 40.8871 30.4032L40.8871 36.6936L47.1774 36.6936L47.1774 22.0161L41.9355 22.0161L41.9355 17.8226L35.6452 17.8226L35.6452 14.191L49.2742 2.65871L49.2742 0L51.371 0L51.371 2.65871L65 14.191L65 17.8226L58.7097 17.8226ZM14.6774 4.51855L2.09677 15.1639L2.09677 15.7258L27.2581 15.7258L27.2581 15.1639L14.6774 4.51855ZM37.7419 15.1639L50.3226 4.51855L62.9032 15.1639L62.9032 15.7258L37.7419 15.7258L37.7419 15.1639ZM20.9677 17.8226L20.9677 19.9194L8.3871 19.9194L8.3871 17.8226L20.9677 17.8226ZM56.6129 17.8226L44.0323 17.8226L44.0323 19.9194L56.6129 19.9194L56.6129 17.8226ZM15.7258 36.6936L15.7258 22.0161L13.629 22.0161L13.629 36.6936L15.7258 36.6936ZM49.2742 36.6936L51.371 36.6936L51.371 22.0161L49.2742 22.0161L49.2742 36.6936ZM24.1129 30.4032C24.1129 29.8256 24.5826 29.3548 25.1613 29.3548C25.74 29.3548 26.2097 29.8256 26.2097 30.4032L26.2097 36.6936L24.1129 36.6936L24.1129 30.4032ZM36.6936 30.4032C36.6936 29.8256 37.1632 29.3548 37.7419 29.3548C38.3206 29.3548 38.7903 29.8256 38.7903 30.4032L38.7903 36.6936L36.6936 36.6936L36.6936 30.4032ZM2.09677 40.8871L2.09677 38.7903L26.2097 38.7903L26.2097 40.8871L2.09677 40.8871ZM38.7903 40.8871L38.7903 38.7903L28.3065 38.7903L28.3065 40.8871L38.7903 40.8871ZM62.9032 40.8871L40.8871 40.8871L40.8871 38.7903L62.9032 38.7903L62.9032 40.8871ZM28.3065 45.0806L38.7903 45.0806L38.7903 42.9839L28.3065 42.9839L28.3065 45.0806Z" id="Shape" fill="#323231" fill-rule="evenodd" stroke="none" />
    </g>
  </g>
</svg>