<?xml version="1.0" encoding="utf-8"?>
<svg width="32px" height="31px" viewBox="0 0 32 31" version="1.1" xmlns:xlink="http://www.w3.org/1999/xlink" xmlns="http://www.w3.org/2000/svg">
  <desc>Created with Lunacy</desc>
  <g id="upload">
    <path d="M10 22L9 7L12 7L6 0L0 7L3 7L2 22L10 22Z" transform="translate(13 9)" id="Path" fill="#FEC108" stroke="none" />
    <path d="M26.8387 0L26.8387 4.56871L32 4.56871L32 23.3514C32 25.0312 30.6111 26.3973 28.9032 26.3973L22.9176 26.3973L23.2241 30.932L22.1939 30.9995L21.125 15.2291L23.652 15.2291L18.5805 9.41L13.5085 15.2291L16.0355 15.2291L14.9661 31L13.936 30.9325L14.2436 26.3973L3.09677 26.3973C1.3889 26.3973 0 25.0312 0 23.3514L0 0L26.8387 0ZM1.03226 23.3514L1.03226 1.01528L25.8064 1.01528L25.8064 4.56882L14.2544 4.56882L13.2222 2.53825L5.16129 2.53825L5.16129 23.3516C5.16129 24.4714 4.2354 25.3821 3.09677 25.3821C1.95815 25.3821 1.03226 24.4712 1.03226 23.3514ZM28.9032 25.382C30.0418 25.382 30.9677 24.4713 30.9677 23.3514L30.9677 5.58399L13.6166 5.58399L12.5843 3.55343L6.19355 3.55343L6.19355 23.3513C6.19355 24.132 5.89108 24.8423 5.39868 25.3819L14.3122 25.3819L14.9316 16.2444L11.265 16.2444L18.5806 7.84955L25.8957 16.2445L22.2292 16.2445L22.8485 25.382L28.9032 25.382Z" id="Shape" fill="#323231" fill-rule="evenodd" stroke="none" />
  </g>
</svg>